<?xml version="1.0" encoding="utf-8"?>
<!-- Generator: Adobe Illustrator 16.0.0, SVG Export Plug-In . SVG Version: 6.00 Build 0)  -->
<!DOCTYPE svg PUBLIC "-//W3C//DTD SVG 1.1//EN" "http://www.w3.org/Graphics/SVG/1.1/DTD/svg11.dtd">
<svg version="1.1" id="Layer_1" xmlns="http://www.w3.org/2000/svg" xmlns:xlink="http://www.w3.org/1999/xlink" x="0px" y="0px"
	 width="48px" height="48px" viewBox="0 0 48 48" enable-background="new 0 0 48 48" xml:space="preserve">
<g>
	<path fill-rule="evenodd" clip-rule="evenodd" fill="#0B0C0C" d="M22.731,46.211c-0.24-0.213-0.554-0.326-0.762-0.588
		c-0.191-0.242-0.261-0.48-0.151-0.787c0.628-1.77,1.243-3.543,1.864-5.313c0.146-0.418,0.262-0.465,0.611-0.193
		c0.585,0.455,1.223,0.766,1.954,0.908c0.462,0.088,0.499,0.221,0.258,0.645c-0.911,1.596-1.827,3.186-2.729,4.787
		c-0.12,0.211-0.295,0.361-0.445,0.541C23.132,46.211,22.933,46.211,22.731,46.211z"/>
	<path fill-rule="evenodd" clip-rule="evenodd" fill="#0B0C0C" d="M28.76,14.185c-0.083,0.604-0.187,1.204-0.139,1.819
		c0.108,1.404,0.725,2.592,1.575,3.676c0.589,0.75,1.223,1.473,1.601,2.364c0.353,0.833,0.54,1.685,0.138,2.561
		c-0.501,1.094-1.782,1.533-2.846,0.98c-1.051-0.547-1.586-1.49-1.785-2.584c-0.56-3.058,0.115-5.94,1.382-8.72
		C28.701,14.246,28.734,14.217,28.76,14.185z"/>
	<path fill-rule="evenodd" clip-rule="evenodd" fill="#0B0C0C" d="M25.974,20.256c-0.325,1.116-0.291,2.219,0.1,3.313
		c0.312,0.868,0.781,1.644,1.358,2.357c0.717,0.889,1.448,1.768,1.747,2.908c0.243,0.922,0.186,1.785-0.519,2.504
		c-0.653,0.668-1.622,0.811-2.438,0.367c-1.193-0.646-1.66-1.762-1.851-3.014c-0.338-2.207,0.069-4.343,0.718-6.444
		C25.303,21.556,25.55,20.875,25.974,20.256z"/>
	<path fill-rule="evenodd" clip-rule="evenodd" fill="#0B0C0C" d="M2.747,14.16c0.264,1.744,1.326,2.917,2.742,3.837
		c0.826,0.535,1.768,0.857,2.583,1.413c0.571,0.388,1.078,0.84,1.448,1.433c0.534,0.854,0.521,1.872-0.039,2.604
		c-0.564,0.74-1.457,0.986-2.464,0.679c-1.204-0.369-1.956-1.257-2.536-2.294c-1.301-2.326-1.835-4.856-1.882-7.503
		C2.662,14.284,2.581,14.113,2.747,14.16z"/>
	<path fill-rule="evenodd" clip-rule="evenodd" fill="#0B0C0C" d="M42.628,20.937c-0.86,1.946-2.132,3.596-3.656,5.059
		c-0.798,0.764-1.688,1.4-2.74,1.781c-0.616,0.221-1.245,0.295-1.892,0.168c-0.975-0.193-1.612-0.807-1.793-1.723
		c-0.165-0.836,0.248-1.734,1.055-2.268c0.863-0.57,1.837-0.759,2.846-0.794c1.054-0.037,2.105-0.042,3.137-0.332
		c1.21-0.339,2.204-0.976,2.949-1.991C42.617,20.822,42.664,20.84,42.628,20.937z"/>
	<path fill-rule="evenodd" clip-rule="evenodd" fill="#0B0C0C" d="M18.088,21.102c-0.05,2.649-0.591,5.18-1.889,7.51
		c-0.507,0.906-1.167,1.695-2.147,2.139c-1.393,0.629-2.791,0.102-3.186-1.209c-0.277-0.924,0.051-1.709,0.643-2.408
		c0.516-0.607,1.158-1.057,1.866-1.408c1.19-0.592,2.382-1.168,3.294-2.182c0.676-0.752,1.121-1.608,1.273-2.611
		C18.111,20.885,18.028,21.054,18.088,21.102z"/>
	<path fill-rule="evenodd" clip-rule="evenodd" fill="#0B0C0C" d="M39.802,27.023c-0.8,1.863-2.009,3.441-3.425,4.867
		c-0.859,0.863-1.82,1.598-2.989,2.014c-0.633,0.227-1.271,0.295-1.933,0.154c-0.946-0.201-1.575-0.748-1.749-1.703
		c-0.177-0.977,0.256-1.725,1.05-2.268c0.802-0.549,1.723-0.719,2.672-0.787c0.924-0.068,1.852-0.021,2.771-0.213
		c1.438-0.297,2.648-0.941,3.511-2.162C39.789,26.912,39.837,26.928,39.802,27.023z"/>
	<path fill-rule="evenodd" clip-rule="evenodd" fill="#0B0C0C" d="M31.541,8.377c-0.048,0.286-0.111,0.569-0.14,0.856
		c-0.167,1.68,0.481,3.094,1.467,4.386c0.604,0.792,1.283,1.532,1.684,2.461c0.347,0.804,0.532,1.629,0.185,2.483
		c-0.484,1.188-1.828,1.658-2.945,1.038c-1.046-0.581-1.552-1.547-1.746-2.66c-0.516-2.954,0.147-5.742,1.315-8.441
		C31.385,8.441,31.404,8.356,31.541,8.377z"/>
	<path fill-rule="evenodd" clip-rule="evenodd" fill="#0B0C0C" d="M2.749,27.873c0.273,1.705,1.306,2.867,2.693,3.779
		c0.848,0.557,1.821,0.885,2.656,1.461c0.654,0.449,1.24,0.973,1.576,1.709c0.377,0.832,0.35,1.641-0.248,2.367
		c-0.606,0.736-1.402,0.875-2.285,0.65c-1.244-0.314-2.027-1.207-2.619-2.252c-1.34-2.357-1.893-4.93-1.92-7.629
		C2.635,27.9,2.653,27.822,2.749,27.873z"/>
	<path fill-rule="evenodd" clip-rule="evenodd" fill="#0B0C0C" d="M23.028,26.59c-0.588,2.127,0.153,3.9,1.427,5.529
		c0.72,0.922,1.488,1.809,1.803,2.977c0.176,0.65,0.202,1.289-0.087,1.92c-0.49,1.066-1.767,1.523-2.813,0.99
		c-1.23-0.629-1.706-1.754-1.902-3.023c-0.328-2.133,0.039-4.201,0.652-6.242C22.333,27.994,22.585,27.258,23.028,26.59z"/>
	<path fill-rule="evenodd" clip-rule="evenodd" fill="#0B0C0C" d="M18.089,7.814c-0.057,2.63-0.592,5.146-1.883,7.458
		c-0.564,1.008-1.299,1.881-2.455,2.266c-1.031,0.343-1.969,0.097-2.551-0.653c-0.576-0.743-0.57-1.779,0.016-2.675
		c0.523-0.8,1.27-1.336,2.095-1.777c0.853-0.455,1.747-0.831,2.517-1.436c1.127-0.888,1.917-1.978,2.121-3.433
		C18.162,7.553,17.995,7.757,18.089,7.814z"/>
	<path fill-rule="evenodd" clip-rule="evenodd" fill="#0B0C0C" d="M2.749,20.931c0.268,1.724,1.313,2.894,2.715,3.808
		c0.838,0.549,1.795,0.871,2.619,1.439c0.653,0.449,1.244,0.965,1.583,1.699c0.389,0.844,0.364,1.668-0.255,2.402
		c-0.626,0.742-1.438,0.865-2.331,0.617c-1.216-0.336-1.985-1.221-2.568-2.254c-1.331-2.359-1.884-4.931-1.909-7.626
		C2.635,20.957,2.653,20.879,2.749,20.931z"/>
	<path fill-rule="evenodd" clip-rule="evenodd" fill="#0B0C0C" d="M18.032,15.454c-0.232,2.54-0.803,4.975-2.305,7.099
		c-0.563,0.796-1.281,1.409-2.273,1.63c-0.939,0.21-1.727-0.02-2.301-0.814c-0.522-0.721-0.506-1.708,0.015-2.532
		c0.544-0.861,1.338-1.43,2.224-1.883c1.013-0.519,2.05-0.994,2.896-1.788c0.88-0.825,1.478-1.799,1.659-3.005
		c0.131-0.005,0.111,0.097,0.111,0.172C18.048,14.707,18.088,15.081,18.032,15.454z"/>
	<path fill-rule="evenodd" clip-rule="evenodd" fill="#0B0C0C" d="M45.417,14.77c-0.167,0.711-0.541,1.312-0.922,1.904
		c-1.071,1.667-2.308,3.19-3.95,4.335c-0.924,0.646-1.917,1.118-3.095,1.03c-1.003-0.075-1.768-0.614-2.054-1.475
		c-0.292-0.876-0.018-1.743,0.766-2.4c0.389-0.325,0.841-0.526,1.32-0.677c0.967-0.304,1.97-0.283,2.964-0.319
		c0.849-0.031,1.672-0.172,2.467-0.469C43.94,16.314,44.772,15.67,45.417,14.77z"/>
	<path fill-rule="evenodd" clip-rule="evenodd" fill="#0B0C0C" d="M18.089,28.045c-0.054,2.629-0.591,5.143-1.875,7.457
		c-0.51,0.922-1.173,1.723-2.168,2.17c-1.262,0.566-2.516,0.199-3.06-0.887c-0.411-0.822-0.219-1.869,0.492-2.691
		c0.53-0.615,1.174-1.076,1.893-1.441c1.041-0.527,2.101-1.018,2.96-1.84c0.849-0.811,1.43-1.764,1.609-2.939
		C18.11,27.826,18.028,27.998,18.089,28.045z"/>
	<path fill-rule="evenodd" clip-rule="evenodd" fill="#0B0C0C" d="M36.779,33.361c0.099,0.17-0.037,0.301-0.104,0.426
		c-1.16,2.18-2.622,4.115-4.646,5.572c-0.806,0.58-1.684,1.016-2.711,1.047c-1.327,0.035-2.285-0.611-2.528-1.711
		c-0.229-1.039,0.402-2.096,1.553-2.615c0.713-0.322,1.462-0.471,2.238-0.504c1.111-0.041,2.229-0.029,3.311-0.354
		c1.078-0.322,2.01-0.871,2.711-1.77C36.649,33.393,36.69,33.342,36.779,33.361z"/>
	<path fill-rule="evenodd" clip-rule="evenodd" fill="#0B0C0C" d="M2.751,7.642c0.354,2.048,1.705,3.281,3.439,4.191
		c0.869,0.456,1.779,0.841,2.52,1.508c0.417,0.376,0.781,0.791,0.998,1.316c0.338,0.815,0.291,1.591-0.281,2.288
		c-0.578,0.706-1.344,0.859-2.2,0.667c-1.29-0.289-2.092-1.199-2.7-2.267c-1.342-2.354-1.892-4.924-1.924-7.617
		C2.635,7.669,2.655,7.592,2.751,7.642z"/>
	<path fill-rule="evenodd" clip-rule="evenodd" fill="#0B0C0C" d="M10.399,2.334c1.026,2.253,1.939,4.456,2.275,6.849
		c0.08,0.565,0.084,1.14,0.001,1.708c-0.151,1.036-0.798,1.656-1.765,1.716c-1.266,0.078-2.117-0.45-2.418-1.507
		c-0.305-1.072-0.207-2.148-0.005-3.219c0.343-1.813,0.946-3.542,1.731-5.208C10.262,2.584,10.312,2.5,10.399,2.334z"/>
	<path fill-rule="evenodd" clip-rule="evenodd" fill="#0B0C0C" d="M40.736,6.775c-0.034,2.458-0.122,4.775-0.777,7.031
		c-0.171,0.589-0.409,1.151-0.738,1.674c-0.578,0.917-1.412,1.228-2.379,0.866c-1.136-0.426-1.702-1.304-1.54-2.362
		c0.108-0.701,0.374-1.342,0.729-1.948C37.221,9.999,38.873,8.377,40.736,6.775z"/>
	<path fill-rule="evenodd" clip-rule="evenodd" fill="#0B0C0C" d="M11.847,39.234c-0.154,1.834-0.299,3.67-0.463,5.504
		c-0.056,0.621-0.347,0.863-0.948,0.852c-0.706-0.012-1.113-0.334-1.169-0.904c-0.181-1.83-0.364-3.662-0.553-5.494
		c-0.045-0.451,0.037-0.549,0.49-0.449c0.706,0.156,1.404,0.168,2.114,0.008C11.841,38.631,11.874,38.678,11.847,39.234z"/>
	<path fill-rule="evenodd" clip-rule="evenodd" fill="#0B0C0C" d="M18.032,15.454c-0.1-0.426,0.133-0.875-0.086-1.293
		c0-0.125,0-0.25,0-0.375C18.16,14.333,18.15,14.891,18.032,15.454z"/>
	<path fill-rule="evenodd" clip-rule="evenodd" fill="#0B0C0C" d="M18.089,28.045c-0.05-0.059-0.099-0.113-0.148-0.172
		c0-0.148,0-0.297,0-0.488C18.124,27.607,18.118,27.824,18.089,28.045z"/>
	<path fill-rule="evenodd" clip-rule="evenodd" fill="#0B0C0C" d="M18.089,7.814c-0.047-0.083-0.094-0.167-0.141-0.25
		c-0.03-0.126-0.03-0.252,0.015-0.4C18.123,7.372,18.118,7.59,18.089,7.814z"/>
	<path fill-rule="evenodd" clip-rule="evenodd" fill="#0B0C0C" d="M2.751,7.642C2.702,7.671,2.653,7.7,2.603,7.729
		C2.571,7.53,2.581,7.341,2.751,7.134C2.751,7.338,2.751,7.49,2.751,7.642z"/>
	<path fill-rule="evenodd" clip-rule="evenodd" fill="#0B0C0C" d="M18.088,21.102c-0.049-0.057-0.097-0.114-0.146-0.17
		c0-0.14,0-0.278,0-0.499C18.104,20.684,18.123,20.887,18.088,21.102z"/>
	<path fill-rule="evenodd" clip-rule="evenodd" fill="#0B0C0C" d="M2.749,27.873c-0.047,0.029-0.096,0.059-0.146,0.086
		c-0.031-0.195-0.029-0.381,0.146-0.566C2.749,27.576,2.749,27.725,2.749,27.873z"/>
	<path fill-rule="evenodd" clip-rule="evenodd" fill="#0B0C0C" d="M2.747,14.16c-0.05,0.056-0.099,0.112-0.147,0.168
		c-0.036-0.212-0.021-0.415,0.118-0.614C2.79,13.871,2.767,14.015,2.747,14.16z"/>
	<path fill-rule="evenodd" clip-rule="evenodd" fill="#0B0C0C" d="M2.749,20.931c-0.049,0.029-0.096,0.057-0.146,0.086
		c-0.033-0.194-0.025-0.378,0.127-0.541C2.78,20.634,2.772,20.782,2.749,20.931z"/>
	<path fill-rule="evenodd" clip-rule="evenodd" fill="#0B0C0C" d="M37.021,32.871c-0.005,0.201-0.043,0.313-0.177,0.387
		C36.797,33.115,36.872,33.018,37.021,32.871z"/>
	<path fill-rule="evenodd" clip-rule="evenodd" fill="#0B0C0C" d="M39.802,27.023c-0.031-0.031-0.062-0.064-0.093-0.098
		c0.042-0.096,0.059-0.209,0.219-0.268C39.913,26.807,39.906,26.928,39.802,27.023z"/>
	<path fill-rule="evenodd" clip-rule="evenodd" fill="#0B0C0C" d="M42.628,20.937c-0.032-0.033-0.063-0.066-0.095-0.099
		c0.041-0.098,0.065-0.206,0.222-0.267C42.74,20.721,42.729,20.841,42.628,20.937z"/>
</g>
</svg>
