<?xml version="1.0" encoding="utf-8"?>
<!-- Generator: Adobe Illustrator 16.0.0, SVG Export Plug-In . SVG Version: 6.00 Build 0)  -->
<!DOCTYPE svg PUBLIC "-//W3C//DTD SVG 1.1//EN" "http://www.w3.org/Graphics/SVG/1.1/DTD/svg11.dtd">
<svg version="1.1" id="Layer_1" xmlns="http://www.w3.org/2000/svg" xmlns:xlink="http://www.w3.org/1999/xlink" x="0px" y="0px"
	 width="48px" height="48px" viewBox="0 0 48 48" enable-background="new 0 0 48 48" xml:space="preserve">
<g>
	<path d="M261.666,99.69c-0.533-0.042-0.956,0.315-0.988,0.835c-0.033,0.518,0.344,0.955,0.85,0.989
		c0.488,0.034,0.949-0.38,0.979-0.878C262.533,100.162,262.15,99.729,261.666,99.69z M261.611,95.992
		c-0.492-0.016-0.903,0.357-0.936,0.848c-0.033,0.525,0.336,0.949,0.852,0.98c0.508,0.029,0.951-0.363,0.979-0.87
		C262.533,96.457,262.115,96.008,261.611,95.992z M267.107,94.144c-0.484,0.001-0.893,0.397-0.909,0.884
		c-0.017,0.521,0.372,0.936,0.892,0.946c0.516,0.012,0.938-0.39,0.942-0.901C268.037,94.569,267.609,94.141,267.107,94.144z
		 M267.111,99.685c-0.502,0-0.894,0.373-0.912,0.87c-0.02,0.508,0.382,0.945,0.886,0.963c0.497,0.016,0.938-0.409,0.948-0.91
		C268.042,100.1,267.628,99.685,267.111,99.685z M270.772,97.842c-0.516,0.011-0.917,0.438-0.894,0.947
		c0.02,0.482,0.438,0.885,0.914,0.885c0.502,0.002,0.925-0.428,0.919-0.934C271.707,98.226,271.292,97.828,270.772,97.842z
		 M270.772,97.842c-0.516,0.011-0.917,0.438-0.894,0.947c0.02,0.482,0.438,0.885,0.914,0.885c0.502,0.002,0.925-0.428,0.919-0.934
		C271.707,98.226,271.292,97.828,270.772,97.842z M267.111,99.685c-0.502,0-0.894,0.373-0.912,0.87
		c-0.02,0.508,0.382,0.945,0.886,0.963c0.497,0.016,0.938-0.409,0.948-0.91C268.042,100.1,267.628,99.685,267.111,99.685z
		 M267.09,95.974c0.516,0.012,0.938-0.39,0.942-0.901c0.005-0.502-0.423-0.932-0.925-0.929c-0.484,0.001-0.893,0.397-0.909,0.884
		C266.182,95.549,266.57,95.961,267.09,95.974z M261.527,97.819c0.508,0.029,0.951-0.364,0.979-0.87
		c0.027-0.494-0.391-0.941-0.895-0.958c-0.492-0.016-0.903,0.357-0.936,0.847C260.645,97.364,261.014,97.789,261.527,97.819z
		 M261.666,99.69c-0.533-0.042-0.956,0.315-0.988,0.835c-0.033,0.518,0.344,0.955,0.85,0.989c0.488,0.034,0.949-0.38,0.979-0.878
		C262.533,100.162,262.15,99.729,261.666,99.69z M291.919,129.024c-0.17-0.826-0.576-1.549-1.057-2.224
		c-0.721-1.008-1.473-1.996-2.229-2.979c-0.203-0.266-0.263-0.5-0.158-0.826c0.369-1.19,0.565-2.414,0.627-3.658
		c0.142-2.957-0.201-5.895-0.396-8.838c-0.022-0.338,0.009-0.603,0.242-0.885c0.653-0.792,1.044-1.712,1.146-2.742
		c0.148-1.49,0.014-2.986,0.064-4.203c0-1.554-0.003-2.83,0.002-4.107c0.003-0.987-0.354-1.822-1.034-2.525
		c-0.481-0.496-1.047-0.871-1.655-1.188c-1.466-0.763-3.049-1.093-4.672-1.168c-2.156-0.101-4.06-0.778-5.73-2.159
		c-0.982-0.813-2.063-1.495-3.213-2.064c-2.344-1.158-4.663-1.129-6.979,0.094c-0.974,0.515-1.901,1.104-2.716,1.838
		c-0.725,0.654-1.551,0.935-2.493,1.001c-1.037,0.073-2.028,0.282-2.817,1.043c-0.109,0.104-0.279,0.159-0.433,0.2
		c-0.828,0.234-1.664,0.447-2.489,0.688c-1.07,0.307-2.219,0.428-3.195,0.946c-1.982,1.054-3.105,2.741-3.139,5.041
		c-0.025,1.944-0.01,3.888-0.003,5.832c0.003,0.741,0.072,1.5,0.431,2.147c0.393,0.706,0.418,1.437,0.398,2.191
		c-0.054,2.271-0.424,4.51-0.699,6.76c-0.164,1.355-0.33,2.727,0.68,3.844c0.461,0.508,0.438,0.938,0.133,1.465
		c-0.215,0.373-0.395,0.767-0.598,1.146c-0.547,1.03-1.133,2.04-1.609,3.104c-0.465,1.039-0.68,2.102-0.504,3.252
		c0.234,1.537,1.152,2.492,2.689,2.722c1.416,0.212,2.797-0.036,4.178-0.282c1.396-0.248,2.768-0.635,4.216-0.479
		c1.646,0.184,3.3,0.269,4.94,0.473c5.131,0.637,10.239,0.331,15.339-0.324c1.563-0.199,3.099-0.41,4.619,0.206
		c1.668,0.679,3.379,0.556,5.096,0.22c0.658-0.129,1.281-0.349,1.845-0.717C291.743,131.217,292.159,130.197,291.919,129.024z
		 M288.271,106.531c-0.045,1.104-0.652,1.955-1.473,2.658c-0.729,0.625-1.568,1.061-2.529,1.455c0.556-2.196,0.68-4.28-0.942-6.131
		c1.815-0.354,3.463-0.952,4.957-2.034C288.283,103.885,288.325,105.211,288.271,106.531z M287.749,97.285
		c0.611,0.668,0.65,1.455,0.339,2.344c-0.582-0.883-1.323-1.455-2.278-1.773c-0.42-0.141-0.662-0.536-0.914-0.882
		c-0.283-0.39-0.545-0.791-0.891-1.296C285.467,95.932,286.778,96.225,287.749,97.285z M251.439,100.375
		c0.016-1.84,1.096-3.224,2.854-3.703c0.791-0.217,1.58-0.435,2.461-0.676c-0.288,0.534-0.674,0.819-1.065,1.094
		c-0.578,0.408-0.715,0.873-0.399,1.363c0.317,0.485,0.821,0.551,1.412,0.18c0.586-0.369,1.073-0.846,1.499-1.385
		c0.301-0.381,0.613-0.76,0.857-1.176c0.692-1.188,1.629-1.857,3.076-1.904c1.196-0.041,2.27-0.535,3.205-1.362
		c1.35-1.192,2.885-2.063,4.725-2.302c1.022-0.133,1.962,0.088,2.87,0.517c1.146,0.539,2.182,1.26,3.149,2.063
		c0.998,0.824,2.11,1.416,3.321,1.851c0.287,0.104,0.563,0.241,0.855,0.321c1.202,0.332,2.078,1.026,2.698,2.133
		c0.604,1.078,1.401,2.004,2.661,2.394c0.275,0.085,0.488,0.302,0.671,0.527c0.554,0.687,0.46,1.116-0.345,1.448
		c-1.713,0.705-3.528,0.975-5.348,1.192c-4.625,0.556-9.266,0.591-13.905,0.315c-3.646-0.217-7.276-0.59-10.781-1.709
		c-0.393-0.125-0.773-0.288-1.159-0.436c-0.659-0.252-1.119-0.098-1.344,0.455c-0.222,0.542,0.006,0.986,0.661,1.26
		c1.699,0.711,3.482,1.131,5.293,1.416c6.931,1.084,13.896,1.194,20.884,0.707c0.932-0.065,1.643,0.457,2.033,1.263
		c0.805,1.657,0.604,3.312-0.217,4.915c-0.116,0.226-0.318,0.308-0.563,0.363c-2.444,0.564-4.928,0.819-7.426,0.963
		c-3.328,0.188-6.656,0.17-9.979-0.109c-3.049-0.256-6.078-0.645-8.936-1.839c-0.934-0.39-1.803-0.894-2.525-1.615
		c-0.791-0.787-1.199-1.731-1.199-2.851C251.439,104.153,251.428,102.265,251.439,100.375z M289.34,130.514
		c-1.464,0.525-2.97,0.697-4.495,0.25c-1.188-0.352-2.365-0.803-3.629-0.689c-1.361,0.12-2.714,0.32-4.07,0.471
		c-4.357,0.472-8.714,0.637-13.085,0.112c-1.979-0.237-3.97-0.452-5.965-0.522c-1.234-0.043-2.418,0.32-3.623,0.518
		c-1.205,0.199-2.404,0.479-3.639,0.301c-0.786-0.111-1.044-0.396-1.182-1.16c-0.133-0.738,0.004-1.422,0.301-2.098
		c0.693-1.58,1.63-3.031,2.355-4.626c1.037,0.799,2.082,1.527,3.198,2.146c0.593,0.328,1.161,0.154,1.392-0.399
		c0.195-0.476,0.035-0.897-0.502-1.21c-1.09-0.637-2.135-1.333-3.102-2.143c-0.18-0.15-0.352-0.309-0.531-0.459
		c-0.986-0.828-1.476-1.795-1.267-3.162c0.343-2.234,0.625-4.483,0.747-6.827c1.479,1.011,3.056,1.629,4.703,2.071
		c2.736,0.735,5.539,1.054,8.363,1.205c3.562,0.194,7.124,0.188,10.68-0.107c3.179-0.266,6.323-0.71,9.294-1.955
		c0.541-0.229,1.063-0.514,1.654-0.803c0.156,2.668,0.477,5.283,0.314,7.914c-0.117,1.935-0.537,3.804-1.492,5.519
		c-0.353,0.631-0.275,1.088,0.23,1.397c0.496,0.305,0.982,0.143,1.354-0.447c0.057-0.092,0.107-0.188,0.211-0.366
		c0.357,0.462,0.691,0.89,1.019,1.319c0.521,0.688,1.032,1.386,1.39,2.176C290.323,129.729,290.162,130.217,289.34,130.514z
		 M270.794,99.674c0.502,0.002,0.926-0.428,0.919-0.934c-0.006-0.515-0.421-0.912-0.94-0.898c-0.515,0.011-0.915,0.438-0.893,0.947
		C269.898,99.271,270.316,99.674,270.794,99.674z M267.111,99.685c-0.502,0-0.894,0.373-0.912,0.87
		c-0.02,0.508,0.382,0.945,0.886,0.963c0.497,0.016,0.938-0.409,0.948-0.91C268.042,100.1,267.628,99.685,267.111,99.685z
		 M267.09,95.974c0.516,0.012,0.938-0.39,0.942-0.901c0.005-0.502-0.423-0.932-0.925-0.929c-0.484,0.001-0.893,0.397-0.909,0.884
		C266.182,95.549,266.57,95.961,267.09,95.974z M261.527,97.819c0.508,0.029,0.951-0.364,0.979-0.87
		c0.027-0.494-0.391-0.941-0.895-0.958c-0.492-0.016-0.903,0.357-0.936,0.847C260.645,97.364,261.014,97.789,261.527,97.819z
		 M261.666,99.69c-0.533-0.042-0.956,0.315-0.988,0.835c-0.033,0.518,0.344,0.955,0.85,0.989c0.488,0.034,0.949-0.38,0.979-0.878
		C262.533,100.162,262.15,99.729,261.666,99.69z M261.666,99.69c-0.533-0.042-0.956,0.315-0.988,0.835
		c-0.033,0.518,0.344,0.955,0.85,0.989c0.488,0.034,0.949-0.38,0.979-0.878C262.533,100.162,262.15,99.729,261.666,99.69z
		 M261.611,95.992c-0.492-0.016-0.903,0.357-0.936,0.848c-0.033,0.525,0.336,0.949,0.852,0.98c0.508,0.029,0.951-0.363,0.979-0.87
		C262.533,96.457,262.115,96.008,261.611,95.992z M267.107,94.144c-0.484,0.001-0.893,0.397-0.909,0.884
		c-0.017,0.521,0.372,0.936,0.892,0.946c0.516,0.012,0.938-0.39,0.942-0.901C268.037,94.569,267.609,94.141,267.107,94.144z
		 M267.111,99.685c-0.502,0-0.894,0.373-0.912,0.87c-0.02,0.508,0.382,0.945,0.886,0.963c0.497,0.016,0.938-0.409,0.948-0.91
		C268.042,100.1,267.628,99.685,267.111,99.685z M270.772,97.842c-0.516,0.011-0.917,0.438-0.894,0.947
		c0.02,0.482,0.438,0.885,0.914,0.885c0.502,0.002,0.925-0.428,0.919-0.934C271.707,98.226,271.292,97.828,270.772,97.842z
		 M270.772,97.842c-0.516,0.011-0.917,0.438-0.894,0.947c0.02,0.482,0.438,0.885,0.914,0.885c0.502,0.002,0.925-0.428,0.919-0.934
		C271.707,98.226,271.292,97.828,270.772,97.842z M267.111,99.685c-0.502,0-0.894,0.373-0.912,0.87
		c-0.02,0.508,0.382,0.945,0.886,0.963c0.497,0.016,0.938-0.409,0.948-0.91C268.042,100.1,267.628,99.685,267.111,99.685z
		 M267.107,94.144c-0.484,0.001-0.893,0.397-0.909,0.884c-0.017,0.521,0.372,0.936,0.892,0.946c0.516,0.012,0.938-0.39,0.942-0.901
		C268.037,94.569,267.609,94.141,267.107,94.144z M261.611,95.992c-0.492-0.016-0.903,0.357-0.936,0.848
		c-0.033,0.525,0.336,0.949,0.852,0.98c0.508,0.029,0.951-0.363,0.979-0.87C262.533,96.457,262.115,96.008,261.611,95.992z
		 M261.666,99.69c-0.533-0.042-0.956,0.315-0.988,0.835c-0.033,0.518,0.344,0.955,0.85,0.989c0.488,0.034,0.949-0.38,0.979-0.878
		C262.533,100.162,262.15,99.729,261.666,99.69z"/>
	<path fill="#FEFEFE" d="M262.506,100.639c-0.029,0.496-0.49,0.912-0.979,0.877c-0.508-0.034-0.885-0.473-0.852-0.989
		c0.033-0.521,0.456-0.877,0.989-0.835C262.15,99.729,262.533,100.162,262.506,100.639z"/>
	<path fill="#FEFEFE" d="M260.678,96.838c0.03-0.489,0.441-0.861,0.934-0.847c0.505,0.017,0.923,0.464,0.896,0.958
		c-0.026,0.506-0.471,0.899-0.979,0.87C261.014,97.789,260.645,97.364,260.678,96.838z"/>
	<path fill="#FEFEFE" d="M266.198,95.026c0.018-0.485,0.425-0.882,0.909-0.884c0.502-0.003,0.93,0.426,0.925,0.929
		c-0.005,0.511-0.427,0.913-0.942,0.901C266.57,95.961,266.182,95.549,266.198,95.026z"/>
	<path fill="#FEFEFE" d="M268.033,100.607c-0.01,0.501-0.451,0.926-0.948,0.91c-0.504-0.018-0.905-0.455-0.886-0.963
		c0.02-0.497,0.41-0.87,0.912-0.87C267.628,99.685,268.042,100.1,268.033,100.607z"/>
	<path fill="#FEFEFE" d="M271.713,98.74c0.007,0.506-0.417,0.936-0.919,0.934c-0.478,0-0.896-0.402-0.914-0.885
		c-0.022-0.509,0.378-0.937,0.893-0.947C271.292,97.828,271.707,98.226,271.713,98.74z"/>
	<path fill="#010101" d="M271.713,98.74c0.007,0.506-0.417,0.936-0.919,0.934c-0.478,0-0.896-0.402-0.914-0.885
		c-0.022-0.509,0.378-0.937,0.893-0.947C271.292,97.828,271.707,98.226,271.713,98.74z"/>
	<path fill="#020202" d="M268.033,100.607c-0.01,0.501-0.451,0.926-0.948,0.91c-0.504-0.018-0.905-0.455-0.886-0.963
		c0.02-0.497,0.41-0.87,0.912-0.87C267.628,99.685,268.042,100.1,268.033,100.607z"/>
	<path fill="#010101" d="M268.032,95.071c-0.005,0.511-0.427,0.913-0.942,0.901c-0.52-0.012-0.908-0.424-0.892-0.946
		c0.018-0.485,0.425-0.882,0.909-0.884C267.609,94.141,268.037,94.569,268.032,95.071z"/>
	<path fill="#020202" d="M262.506,96.949c-0.027,0.506-0.471,0.899-0.979,0.87c-0.516-0.03-0.885-0.455-0.852-0.981
		c0.031-0.489,0.442-0.861,0.936-0.847C262.115,96.008,262.533,96.457,262.506,96.949z"/>
	<path fill="#020202" d="M262.506,100.639c-0.029,0.496-0.49,0.912-0.979,0.877c-0.508-0.034-0.885-0.473-0.852-0.989
		c0.033-0.521,0.456-0.877,0.989-0.835C262.15,99.729,262.533,100.162,262.506,100.639z"/>
</g>
<path fill-rule="evenodd" clip-rule="evenodd" d="M17.768,19.394c-0.283-0.208-0.431-0.178-0.642,0.091
	c-0.365,0.465-0.831,0.83-1.318,1.168c-1.088,0.758-2.289,1.262-3.563,1.608c-0.144,0.04-0.366,0.014-0.335,0.153
	c0.076,0.328,0.134,0.524,0.161,0.722c0.034,0.258,0.173,0.287,0.388,0.228c2.042-0.565,3.907-1.444,5.395-3
	C18.375,19.818,18.352,19.827,17.768,19.394z M17.768,19.394c-0.283-0.208-0.431-0.178-0.642,0.091
	c-0.365,0.465-0.831,0.83-1.318,1.168c-1.088,0.758-2.289,1.262-3.563,1.608c-0.144,0.04-0.366,0.014-0.335,0.153
	c0.076,0.328,0.134,0.524,0.161,0.722c0.034,0.258,0.173,0.287,0.388,0.228c2.042-0.565,3.907-1.444,5.395-3
	C18.375,19.818,18.352,19.827,17.768,19.394z M17.768,19.394c-0.283-0.208-0.431-0.178-0.642,0.091
	c-0.365,0.465-0.831,0.83-1.318,1.168c-1.088,0.758-2.289,1.262-3.563,1.608c-0.144,0.04-0.366,0.014-0.335,0.153
	c0.076,0.328,0.134,0.524,0.161,0.722c0.034,0.258,0.173,0.287,0.388,0.228c2.042-0.565,3.907-1.444,5.395-3
	C18.375,19.818,18.352,19.827,17.768,19.394z M17.768,19.394c-0.283-0.208-0.431-0.178-0.642,0.091
	c-0.365,0.465-0.831,0.83-1.318,1.168c-1.088,0.758-2.289,1.262-3.563,1.608c-0.144,0.04-0.366,0.014-0.335,0.153
	c0.076,0.328,0.134,0.524,0.161,0.722c0.034,0.258,0.173,0.287,0.388,0.228c2.042-0.565,3.907-1.444,5.395-3
	C18.375,19.818,18.352,19.827,17.768,19.394z M17.768,19.394c-0.283-0.208-0.431-0.178-0.642,0.091
	c-0.365,0.465-0.831,0.83-1.318,1.168c-1.088,0.758-2.289,1.262-3.563,1.608c-0.144,0.04-0.366,0.014-0.335,0.153
	c0.076,0.328,0.134,0.524,0.161,0.722c0.034,0.258,0.173,0.287,0.388,0.228c2.042-0.565,3.907-1.444,5.395-3
	C18.375,19.818,18.352,19.827,17.768,19.394z M17.768,19.394c-0.283-0.208-0.431-0.178-0.642,0.091
	c-0.365,0.465-0.831,0.83-1.318,1.168c-1.088,0.758-2.289,1.262-3.563,1.608c-0.144,0.04-0.366,0.014-0.335,0.153
	c0.076,0.328,0.134,0.524,0.161,0.722c0.034,0.258,0.173,0.287,0.388,0.228c2.042-0.565,3.907-1.444,5.395-3
	C18.375,19.818,18.352,19.827,17.768,19.394z M15.827,33.371c-0.028-0.241-0.102-0.325-0.339-0.289
	c-0.184,0.025-0.37,0.021-0.555,0.03c-1.739,0.076-3.428-0.118-5.002-0.931c-0.476-0.246-0.552-0.221-0.921,0.468
	c-0.22,0.414,0.226,0.419,0.396,0.509c1.521,0.802,3.17,1.083,4.873,1.063c0.27,0,0.54,0.008,0.809-0.003
	C15.935,34.188,15.922,34.188,15.827,33.371z M17.768,19.394c-0.283-0.208-0.431-0.178-0.642,0.091
	c-0.365,0.465-0.831,0.83-1.318,1.168c-1.088,0.758-2.289,1.262-3.563,1.608c-0.144,0.04-0.366,0.014-0.335,0.153
	c0.076,0.328,0.134,0.524,0.161,0.722c0.034,0.258,0.173,0.287,0.388,0.228c2.042-0.565,3.907-1.444,5.395-3
	C18.375,19.818,18.352,19.827,17.768,19.394z M15.827,33.371c-0.028-0.241-0.102-0.325-0.339-0.289
	c-0.184,0.025-0.37,0.021-0.555,0.03c-1.739,0.076-3.428-0.118-5.002-0.931c-0.476-0.246-0.552-0.221-0.921,0.468
	c-0.22,0.414,0.226,0.419,0.396,0.509c1.521,0.802,3.17,1.083,4.873,1.063c0.27,0,0.54,0.008,0.809-0.003
	C15.935,34.188,15.922,34.188,15.827,33.371z M17.768,19.394c-0.283-0.208-0.431-0.178-0.642,0.091
	c-0.365,0.465-0.831,0.83-1.318,1.168c-1.088,0.758-2.289,1.262-3.563,1.608c-0.144,0.04-0.366,0.014-0.335,0.153
	c0.076,0.328,0.134,0.524,0.161,0.722c0.034,0.258,0.173,0.287,0.388,0.228c2.042-0.565,3.907-1.444,5.395-3
	C18.375,19.818,18.352,19.827,17.768,19.394z M46.005,24.24c-0.306-0.534-0.727-0.974-1.209-1.347
	c-1.541-1.201-3.301-1.865-5.234-2.072c-0.365-0.039-0.566-0.117-0.649-0.548c-0.313-1.614-1.323-2.639-2.85-3.189
	c-0.459-0.166-0.947-0.195-1.436-0.326c0.451-1.07,0.088-1.927-0.651-2.681c-0.369-0.375-0.79-0.688-1.259-0.925
	c-3.466-1.753-6.879-1.591-10.224,0.324c-0.334,0.191-0.533,0.212-0.868-0.012c-3.075-2.051-6.383-2.48-9.884-1.316
	c-1.128,0.375-2.168,0.929-2.993,1.819c-0.994,1.078-0.999,2.206,0.011,3.273c0.275,0.294,0.6,0.539,0.937,0.835
	c-0.23,0.155-0.46,0.298-0.676,0.458c-1.391,1.029-2.569,2.237-3.201,3.887c-0.265,0.693-0.378,1.413,0.021,2.099
	c0.142,0.243,0.121,0.306-0.143,0.406c-1.045,0.398-2.014,0.938-2.839,1.708c-1.78,1.659-1.599,3.285,0.508,4.518
	c0.776,0.454,1.612,0.755,2.481,0.973c0.182,0.045,0.388,0.041,0.325,0.367c-0.14,0.712,0.19,1.279,0.667,1.768
	c0.513,0.526,1.129,0.909,1.808,1.178c3.378,1.331,6.805,1.365,10.249,0.317c1.205-0.367,2.328-0.916,3.051-2.027
	c0.121-0.185,0.252-0.104,0.394-0.067c2.243,0.567,4.505,0.621,6.775,0.233c1.47-0.25,2.888-0.672,4.096-1.604
	c1.222-0.941,1.427-1.938,0.641-3.249c-0.18-0.3-0.009-0.35,0.185-0.398c0.122-0.031,0.268-0.002,0.396,0.029
	c2.482,0.623,4.975,0.632,7.465,0.066c1.391-0.316,2.723-0.786,3.765-1.828C46.458,26.11,46.564,25.217,46.005,24.24z
	 M31.854,13.953c0.57,0.262,1.085,0.611,1.498,1.094c0.442,0.519,0.469,0.948,0.124,1.522c-0.112,0.182-0.241,0.29-0.47,0.329
	c-1.966,0.325-3.651,1.218-5.109,2.562c-0.134,0.123-0.246,0.264-0.451,0.3c-1.963,0.356-3.914,0.443-5.838-0.213
	c-0.054-0.018-0.107-0.038-0.231-0.083c1.061-0.477,2.138-0.866,2.542-2.006c0.429-1.208-0.315-2.081-1.023-2.972
	C25.814,12.83,28.784,12.546,31.854,13.953z M25.336,23.401c-0.094,0.335-0.237,0.17-0.392,0.081
	c-1.253-0.718-2.595-1.184-4.026-1.374c-0.409-0.054-0.823-0.076-1.296-0.117c0.414-0.48,0.771-0.921,1.023-1.435
	c0.057-0.116,0.131-0.136,0.241-0.091c1.778,0.732,3.632,0.768,5.604,0.575C25.977,21.827,25.568,22.574,25.336,23.401z
	 M25.858,25.734c-0.942,0.07-1.858,0.181-2.741,0.463c-1.643,0.524-3.158,1.25-4.271,2.636c-0.179,0.223-1.027-0.014-1.116-0.328
	c-0.383-1.377-1.421-2.167-2.553-2.866c-0.427-0.263-0.892-0.465-1.334-0.692C16.405,22.253,23.828,22.705,25.858,25.734z
	 M10.528,13.936c3.351-2.091,8.418-1.594,11.298,1.108c0.358,0.337,0.687,0.697,0.915,1.136c0.313,0.603,0.237,0.994-0.271,1.431
	c-0.443,0.38-0.977,0.586-1.518,0.78c-0.136,0.049-0.242,0.042-0.35-0.09c-1.082-1.331-2.617-1.726-4.194-1.779
	c-1.756-0.058-3.36-0.42-4.793-1.445c-0.117-0.085-0.181-0.075-0.294,0.023c-0.693,0.604-0.696,0.694,0.093,1.19
	c0.318,0.203,0.656,0.377,1,0.572c-0.451,0.175-0.889,0.34-1.327,0.512c-0.135,0.054-0.258,0.062-0.379-0.031
	c-0.04-0.031-0.09-0.049-0.132-0.074C8.691,16.162,8.677,15.089,10.528,13.936z M6.717,23.399c0.068-0.562,0.298-1.07,0.61-1.534
	c1.59-2.346,3.821-3.68,6.588-4.163c0.232-0.04,0.466-0.079,0.701-0.092c0.286-0.015,0.573-0.005,0.859-0.005
	c1.192-0.029,2.352,0.134,3.42,0.696c1.063,0.556,1.207,1.12,0.545,2.105c-0.437,0.65-1.016,1.164-1.631,1.642
	c-0.188,0.148-0.411,0.14-0.619,0.184c-1.641,0.343-3.142,0.984-4.429,2.073c-0.205,0.172-0.397,0.208-0.647,0.149
	c-1.462-0.339-2.933-0.372-4.41-0.089C7.076,24.486,6.637,24.062,6.717,23.399z M6.562,31.147c-1.099-0.269-2.179-0.593-3.1-1.286
	c-0.869-0.651-0.938-1.202-0.21-2.023c0.992-1.122,2.288-1.765,3.705-2.148c3.078-0.835,5.939-0.383,8.53,1.525
	c0.366,0.269,0.684,0.59,0.968,1.081c-1.869-0.341-3.639-0.293-5.383,0.229c-0.177,0.053-0.373,0.078-0.529,0.167
	c-1.451,0.852-2.885,0.427-4.317-0.052c-0.237-0.079-0.458-0.212-0.695-0.297c-0.19-0.068-0.365-0.355-0.551-0.206
	c-0.228,0.184-0.401,0.46-0.534,0.728c-0.087,0.174,0.151,0.22,0.263,0.289c0.902,0.553,1.907,0.822,2.965,1.036
	c-0.28,0.294-0.547,0.569-0.804,0.853C6.781,31.14,6.694,31.182,6.562,31.147z M20.543,33.659c-0.911,0.739-1.999,1.091-3.118,1.352
	c-1.07,0.248-2.158,0.354-2.857,0.341c-2.236-0.008-4.022-0.262-5.703-1.051c-0.474-0.221-0.922-0.488-1.282-0.879
	c-0.392-0.432-0.431-0.781-0.135-1.281c0.341-0.582,0.849-0.999,1.396-1.369c3.113-2.102,7.567-2.103,10.679-0.004
	c0.463,0.313,0.894,0.662,1.231,1.112C21.295,32.598,21.247,33.087,20.543,33.659z M32.672,31.283
	c-0.688,0.599-1.516,0.941-2.375,1.184c-2.553,0.723-5.119,0.735-7.693,0.106c-0.237-0.058-0.402-0.148-0.469-0.43
	c-0.113-0.48-0.412-0.873-0.737-1.243c0.183-0.098,0.304,0.042,0.43,0.102c1.861,0.856,3.827,0.989,5.833,0.862
	c0.277-0.017,0.324-0.132,0.307-0.382c-0.05-0.744-0.039-0.746-0.759-0.713c-1.894,0.087-3.739-0.081-5.421-1.062
	c-0.283-0.164-0.335,0.078-0.406,0.209c-0.246,0.438-0.446,0.57-0.908,0.166c-0.784-0.683-0.82-0.644,0.004-1.313
	c3.126-2.548,8.505-2.542,11.617,0.021c0.272,0.224,0.526,0.479,0.745,0.754C33.389,30.243,33.341,30.703,32.672,31.283z
	 M33.078,27.85c-0.26,0.132-0.27,0.112-0.942-0.476c1.03-0.449,1.962-1.025,2.768-1.791c0.193-0.185,0.384-0.379,0.565-0.579
	c0.551-0.608,0.539-0.597-0.103-1.078c-0.239-0.175-0.343-0.131-0.517,0.08c-1.012,1.223-2.252,2.119-3.801,2.543
	c-0.098,0.025-0.207,0.089-0.293,0.064c-0.821-0.232-1.625-0.525-2.461-0.725c-0.223-0.053-0.2-0.372-0.213-0.579
	c-0.043-0.716,0.195-1.367,0.57-1.958c0.401-0.636-0.281-0.6-0.5-0.816c-0.313-0.306-0.378,0.108-0.473,0.266
	c-0.422,0.7-0.684,1.46-0.731,2.379c-0.198-0.217-0.327-0.395-0.492-0.528c-0.237-0.191-0.235-0.398-0.159-0.67
	c0.45-1.617,1.396-2.906,2.658-3.969c1.479-1.248,3.157-2.077,5.131-2.105c2.904-0.042,4.472,2.022,3.623,4.797
	C36.971,25.125,35.284,26.734,33.078,27.85z M44.048,26.738c-1.608,0.918-3.383,1.191-5.197,1.275
	c-1.129,0.055-2.249-0.032-3.415-0.273c0.344-0.313,0.652-0.569,0.925-0.858c0.146-0.15,0.271-0.065,0.409-0.05
	c2.188,0.229,4.304,0.008,6.295-0.993c0.187-0.093,0.533-0.183,0.481-0.37c-0.078-0.29-0.327-0.539-0.524-0.786
	c-0.078-0.101-0.182,0.008-0.266,0.057c-1.646,0.921-3.434,1.114-5.383,1.047c0.702-0.979,1.209-1.956,1.466-3.05
	c0.218-0.921,0.227-0.913,1.197-0.729c1.597,0.303,3.072,0.88,4.302,1.974C45.607,25.114,45.524,25.896,44.048,26.738z
	 M12.071,23.135c0.034,0.258,0.173,0.287,0.388,0.228c2.042-0.565,3.907-1.444,5.395-3c0.521-0.544,0.499-0.536-0.085-0.969
	c-0.283-0.208-0.431-0.178-0.642,0.091c-0.365,0.465-0.831,0.83-1.318,1.168c-1.088,0.758-2.289,1.262-3.563,1.608
	c-0.144,0.04-0.366,0.014-0.335,0.153C11.986,22.741,12.044,22.938,12.071,23.135z M15.488,33.082
	c-0.184,0.025-0.37,0.021-0.555,0.03c-1.739,0.076-3.428-0.118-5.002-0.931c-0.476-0.246-0.552-0.221-0.921,0.468
	c-0.22,0.414,0.226,0.419,0.396,0.509c1.521,0.802,3.17,1.083,4.873,1.063c0.27,0,0.54,0.008,0.809-0.003
	c0.847-0.029,0.834-0.03,0.739-0.847C15.798,33.13,15.725,33.046,15.488,33.082z M17.768,19.394
	c-0.283-0.208-0.431-0.178-0.642,0.091c-0.365,0.465-0.831,0.83-1.318,1.168c-1.088,0.758-2.289,1.262-3.563,1.608
	c-0.144,0.04-0.366,0.014-0.335,0.153c0.076,0.328,0.134,0.524,0.161,0.722c0.034,0.258,0.173,0.287,0.388,0.228
	c2.042-0.565,3.907-1.444,5.395-3C18.375,19.818,18.352,19.827,17.768,19.394z M17.768,19.394c-0.283-0.208-0.431-0.178-0.642,0.091
	c-0.365,0.465-0.831,0.83-1.318,1.168c-1.088,0.758-2.289,1.262-3.563,1.608c-0.144,0.04-0.366,0.014-0.335,0.153
	c0.076,0.328,0.134,0.524,0.161,0.722c0.034,0.258,0.173,0.287,0.388,0.228c2.042-0.565,3.907-1.444,5.395-3
	C18.375,19.818,18.352,19.827,17.768,19.394z M17.768,19.394c-0.283-0.208-0.431-0.178-0.642,0.091
	c-0.365,0.465-0.831,0.83-1.318,1.168c-1.088,0.758-2.289,1.262-3.563,1.608c-0.144,0.04-0.366,0.014-0.335,0.153
	c0.076,0.328,0.134,0.524,0.161,0.722c0.034,0.258,0.173,0.287,0.388,0.228c2.042-0.565,3.907-1.444,5.395-3
	C18.375,19.818,18.352,19.827,17.768,19.394z M17.768,19.394c-0.283-0.208-0.431-0.178-0.642,0.091
	c-0.365,0.465-0.831,0.83-1.318,1.168c-1.088,0.758-2.289,1.262-3.563,1.608c-0.144,0.04-0.366,0.014-0.335,0.153
	c0.076,0.328,0.134,0.524,0.161,0.722c0.034,0.258,0.173,0.287,0.388,0.228c2.042-0.565,3.907-1.444,5.395-3
	C18.375,19.818,18.352,19.827,17.768,19.394z M17.768,19.394c-0.283-0.208-0.431-0.178-0.642,0.091
	c-0.365,0.465-0.831,0.83-1.318,1.168c-1.088,0.758-2.289,1.262-3.563,1.608c-0.144,0.04-0.366,0.014-0.335,0.153
	c0.076,0.328,0.134,0.524,0.161,0.722c0.034,0.258,0.173,0.287,0.388,0.228c2.042-0.565,3.907-1.444,5.395-3
	C18.375,19.818,18.352,19.827,17.768,19.394z M17.768,19.394c-0.283-0.208-0.431-0.178-0.642,0.091
	c-0.365,0.465-0.831,0.83-1.318,1.168c-1.088,0.758-2.289,1.262-3.563,1.608c-0.144,0.04-0.366,0.014-0.335,0.153
	c0.076,0.328,0.134,0.524,0.161,0.722c0.034,0.258,0.173,0.287,0.388,0.228c2.042-0.565,3.907-1.444,5.395-3
	C18.375,19.818,18.352,19.827,17.768,19.394z"/>
</svg>
