<?xml version="1.0" encoding="utf-8"?>
<!-- Generator: Adobe Illustrator 16.0.0, SVG Export Plug-In . SVG Version: 6.00 Build 0)  -->
<!DOCTYPE svg PUBLIC "-//W3C//DTD SVG 1.1//EN" "http://www.w3.org/Graphics/SVG/1.1/DTD/svg11.dtd">
<svg version="1.1" id="Layer_1" xmlns="http://www.w3.org/2000/svg" xmlns:xlink="http://www.w3.org/1999/xlink" x="0px" y="0px"
	 width="48px" height="48px" viewBox="0 0 48 48" enable-background="new 0 0 48 48" xml:space="preserve">
<g>
	<path fill-rule="evenodd" clip-rule="evenodd" d="M17.448,35.771c0-1.098,0-1.09-1.114-1.077c-0.252,0.002-0.321,0.07-0.318,0.321
		c0.014,1.084,0.005,2.169,0.005,3.253v2.499c0,1.081,0.001,1.068,1.071,1.077c0.292,0.002,0.365-0.076,0.363-0.365
		C17.443,39.576,17.448,37.675,17.448,35.771z M23.158,35.771c0-1.098,0-1.09-1.117-1.077c-0.251,0.002-0.321,0.07-0.317,0.321
		c0.013,1.084,0.005,2.169,0.005,3.253v2.499c0,1.081,0,1.068,1.071,1.077c0.293,0.002,0.364-0.076,0.362-0.365
		C23.15,39.576,23.158,37.675,23.158,35.771z M28.864,35.808c0-1.139,0-1.128-1.123-1.113c-0.267,0.002-0.311,0.093-0.309,0.33
		c0.012,1.068,0.005,2.14,0.005,3.21v2.541c0,1.075,0,1.061,1.08,1.069c0.309,0.002,0.354-0.104,0.353-0.376
		C28.86,39.582,28.864,37.694,28.864,35.808z M34.572,38.315V37.2c0-1.099,0.001-1.091-1.115-1.078
		c-0.25,0.003-0.322,0.068-0.316,0.319c0.015,0.95,0.005,1.903,0.005,2.852c0,1.175-0.001,1.166,1.159,1.124
		c0.213-0.009,0.278-0.062,0.272-0.277C34.564,39.531,34.572,38.924,34.572,38.315z M39.12,36.843c-0.015,0-0.029,0.002-0.044,0
		c-0.177-0.025-0.228,0.053-0.227,0.224c0.009,0.803,0.009,1.605,0,2.408c-0.001,0.176,0.06,0.214,0.229,0.227
		c1.202,0.097,1.202,0.104,1.202-1.075v-0.67C40.281,36.783,40.281,36.783,39.12,36.843z M39.12,36.843
		c-0.015,0-0.029,0.002-0.044,0c-0.177-0.025-0.228,0.053-0.227,0.224c0.009,0.803,0.009,1.605,0,2.408
		c-0.001,0.176,0.06,0.214,0.229,0.227c1.202,0.097,1.202,0.104,1.202-1.075v-0.67C40.281,36.783,40.281,36.783,39.12,36.843z
		 M34.572,38.315V37.2c0-1.099,0.001-1.091-1.115-1.078c-0.25,0.003-0.322,0.068-0.316,0.319c0.015,0.95,0.005,1.903,0.005,2.852
		c0,1.175-0.001,1.166,1.159,1.124c0.213-0.009,0.278-0.062,0.272-0.277C34.564,39.531,34.572,38.924,34.572,38.315z M28.864,35.808
		c0-1.139,0-1.128-1.123-1.113c-0.267,0.002-0.311,0.093-0.309,0.33c0.012,1.068,0.005,2.14,0.005,3.21v2.541
		c0,1.075,0,1.061,1.08,1.069c0.309,0.002,0.354-0.104,0.353-0.376C28.86,39.582,28.864,37.694,28.864,35.808z M23.158,35.771
		c0-1.098,0-1.09-1.117-1.077c-0.251,0.002-0.321,0.07-0.317,0.321c0.013,1.084,0.005,2.169,0.005,3.253v2.499
		c0,1.081,0,1.068,1.071,1.077c0.293,0.002,0.364-0.076,0.362-0.365C23.15,39.576,23.158,37.675,23.158,35.771z M17.448,35.771
		c0-1.098,0-1.09-1.114-1.077c-0.252,0.002-0.321,0.07-0.318,0.321c0.014,1.084,0.005,2.169,0.005,3.253v2.499
		c0,1.081,0.001,1.068,1.071,1.077c0.292,0.002,0.365-0.076,0.363-0.365C17.443,39.576,17.448,37.675,17.448,35.771z M17.448,35.771
		c0-1.098,0-1.09-1.114-1.077c-0.252,0.002-0.321,0.07-0.318,0.321c0.014,1.084,0.005,2.169,0.005,3.253v2.499
		c0,1.081,0.001,1.068,1.071,1.077c0.292,0.002,0.365-0.076,0.363-0.365C17.443,39.576,17.448,37.675,17.448,35.771z M23.158,35.771
		c0-1.098,0-1.09-1.117-1.077c-0.251,0.002-0.321,0.07-0.317,0.321c0.013,1.084,0.005,2.169,0.005,3.253v2.499
		c0,1.081,0,1.068,1.071,1.077c0.293,0.002,0.364-0.076,0.362-0.365C23.15,39.576,23.158,37.675,23.158,35.771z M28.864,35.808
		c0-1.139,0-1.128-1.123-1.113c-0.267,0.002-0.311,0.093-0.309,0.33c0.012,1.068,0.005,2.14,0.005,3.21v2.541
		c0,1.075,0,1.061,1.08,1.069c0.309,0.002,0.354-0.104,0.353-0.376C28.86,39.582,28.864,37.694,28.864,35.808z M34.572,38.315V37.2
		c0-1.099,0.001-1.091-1.115-1.078c-0.25,0.003-0.322,0.068-0.316,0.319c0.015,0.95,0.005,1.903,0.005,2.852
		c0,1.175-0.001,1.166,1.159,1.124c0.213-0.009,0.278-0.062,0.272-0.277C34.564,39.531,34.572,38.924,34.572,38.315z M39.12,36.843
		c-0.015,0-0.029,0.002-0.044,0c-0.177-0.025-0.228,0.053-0.227,0.224c0.009,0.803,0.009,1.605,0,2.408
		c-0.001,0.176,0.06,0.214,0.229,0.227c1.202,0.097,1.202,0.104,1.202-1.075v-0.67C40.281,36.783,40.281,36.783,39.12,36.843z
		 M39.12,36.843c-0.015,0-0.029,0.002-0.044,0c-0.177-0.025-0.228,0.053-0.227,0.224c0.009,0.803,0.009,1.605,0,2.408
		c-0.001,0.176,0.06,0.214,0.229,0.227c1.202,0.097,1.202,0.104,1.202-1.075v-0.67C40.281,36.783,40.281,36.783,39.12,36.843z
		 M34.572,38.315V37.2c0-1.099,0.001-1.091-1.115-1.078c-0.25,0.003-0.322,0.068-0.316,0.319c0.015,0.95,0.005,1.903,0.005,2.852
		c0,1.175-0.001,1.166,1.159,1.124c0.213-0.009,0.278-0.062,0.272-0.277C34.564,39.531,34.572,38.924,34.572,38.315z M28.864,35.808
		c0-1.139,0-1.128-1.123-1.113c-0.267,0.002-0.311,0.093-0.309,0.33c0.012,1.068,0.005,2.14,0.005,3.21v2.541
		c0,1.075,0,1.061,1.08,1.069c0.309,0.002,0.354-0.104,0.353-0.376C28.86,39.582,28.864,37.694,28.864,35.808z M23.158,35.771
		c0-1.098,0-1.09-1.117-1.077c-0.251,0.002-0.321,0.07-0.317,0.321c0.013,1.084,0.005,2.169,0.005,3.253v2.499
		c0,1.081,0,1.068,1.071,1.077c0.293,0.002,0.364-0.076,0.362-0.365C23.15,39.576,23.158,37.675,23.158,35.771z M17.448,35.771
		c0-1.098,0-1.09-1.114-1.077c-0.252,0.002-0.321,0.07-0.318,0.321c0.014,1.084,0.005,2.169,0.005,3.253v2.499
		c0,1.081,0.001,1.068,1.071,1.077c0.292,0.002,0.365-0.076,0.363-0.365C17.443,39.576,17.448,37.675,17.448,35.771z M43.974,34.798
		c-0.254-0.149-0.259-0.234-0.085-0.45c0.592-0.73,1.034-1.55,1.398-2.416c0.697-1.662,0.748-3.407,0.7-5.164
		c-0.084-3.159-1.354-5.735-3.814-7.713c-1.262-1.015-2.607-1.029-3.919-0.065c-0.163,0.121-0.262,0.137-0.409-0.003
		c-0.335-0.313-0.745-0.497-1.185-0.585c-0.244-0.049-0.267-0.146-0.243-0.358c0.072-0.65,0.14-1.3,0.177-1.952
		c0.036-0.622,0.193-1.24,0.09-1.865c-0.259-1.546-1.601-2.521-3.212-2.344c-1.481,0.163-2.551,1.44-2.454,2.98
		c0.066,1.066,0.179,2.131,0.288,3.195c0.022,0.217-0.005,0.313-0.237,0.368c-0.424,0.097-0.802,0.303-1.14,0.581
		c-0.076,0.063-0.132,0.223-0.286,0.121c-0.138-0.089-0.116-0.212-0.1-0.353c0.117-0.93-0.063-1.809-0.544-2.607
		c-0.166-0.277-0.174-0.452-0.006-0.738c1.635-2.789-0.362-6.344-3.592-6.404c-0.254-0.005-0.379-0.067-0.486-0.315
		c-0.477-1.084-1.286-1.836-2.392-2.262c-0.214-0.082-0.384-0.193-0.541-0.36c-0.824-0.877-1.84-1.338-3.043-1.345
		c-0.258-0.001-0.343-0.099-0.441-0.312c-0.698-1.49-1.873-2.374-3.507-2.524c-1.636-0.152-2.958,0.495-3.916,1.833
		c-0.144,0.199-0.288,0.274-0.528,0.311C8.8,4.322,7.595,5.28,6.989,6.954c-0.07,0.192-0.164,0.309-0.362,0.4
		c-4.034,1.842-4.659,6.987-1.188,9.762c0.187,0.148,0.205,0.262,0.135,0.474c-0.559,1.713-0.191,3.216,1.079,4.49
		c0.155,0.156,0.201,0.293,0.168,0.504c-0.367,2.346,1.077,4.413,3.417,4.897c0.198,0.04,0.301,0.116,0.37,0.314
		c0.456,1.299,0.921,2.596,1.396,3.889c0.084,0.229,0.013,0.336-0.161,0.471c-0.604,0.465-1.133,1.012-1.539,1.656
		c-0.187,0.298-0.377,0.327-0.684,0.256c-1.098-0.26-2.198-0.505-3.298-0.739c-1.136-0.243-2.213,0.485-2.404,1.626
		c-0.063,0.376-0.041,0.761,0.048,1.137c-1.419,0.218-2.212,1.001-2.212,2.178c0,1.175,0.797,1.967,2.221,2.18
		c-0.017,0.067-0.036,0.136-0.047,0.203c-0.299,1.682,0.905,2.873,2.566,2.524c1.03-0.218,2.057-0.452,3.082-0.693
		c0.329-0.078,0.525-0.038,0.755,0.277c1.854,2.52,4.37,3.688,7.468,3.273c4.237-0.562,8.455-1.257,12.68-1.903
		c3.99-0.61,7.977-1.237,11.969-1.846c1.734-0.265,3.121-1.515,3.448-3.156C46.25,37.356,45.538,35.731,43.974,34.798z
		 M4.142,38.982c-0.634-0.002-0.967-0.253-0.96-0.725c0.007-0.465,0.335-0.701,0.982-0.701h2.088c0.787,0,1.571,0.004,2.356-0.004
		c0.213-0.005,0.346,0.025,0.29,0.283c-0.018,0.086-0.008,0.177-0.009,0.266c-0.013,0.881-0.013,0.881-0.879,0.881
		C6.721,38.982,5.431,38.984,4.142,38.982z M8.957,41.182c-0.946,0.175-1.881,0.412-2.822,0.616
		c-0.444,0.098-0.763-0.109-0.813-0.515c-0.07-0.566,0.149-0.862,0.666-0.871c0.505-0.01,1.01-0.002,1.516-0.002
		c0.477,0,0.951,0,1.426-0.002c0.154,0,0.256,0.009,0.332,0.198C9.4,40.955,9.371,41.104,8.957,41.182z M9.341,35.637
		c-0.07,0.226-0.042,0.538-0.46,0.501c-0.47-0.041-0.946-0.009-1.421-0.009c-0.488,0-0.976-0.004-1.465,0.002
		c-0.273,0.002-0.509-0.074-0.612-0.342c-0.108-0.283-0.132-0.585,0.058-0.848c0.177-0.245,0.43-0.266,0.716-0.198
		c0.95,0.22,1.903,0.418,2.851,0.646C9.127,35.419,9.441,35.31,9.341,35.637z M39.386,19.927c0.63-0.334,1.235-0.273,1.791,0.156
		c2.05,1.586,3.205,3.679,3.36,6.264c0.091,1.521,0.122,3.057-0.389,4.539c-0.392,1.139-0.979,2.155-1.767,3.059
		c-0.165,0.188-0.326,0.272-0.574,0.222c-0.348-0.071-0.699-0.12-1.097-0.184c0.751-1.601,1.04-3.233,1-4.937
		c-0.032-1.362,0.084-2.733-0.202-4.083c-0.361-1.699-1.083-3.228-2.213-4.548C39.076,20.158,39.15,20.052,39.386,19.927z
		 M36.291,19.818c0.142-0.089,0.29,0.024,0.406,0.1c0.505,0.322,0.938,0.73,1.331,1.177c1.45,1.644,2.225,3.567,2.24,5.758
		c0.013,1.483,0.131,2.973-0.159,4.444c-0.152,0.761-0.407,1.483-0.732,2.187c-0.096,0.207-0.216,0.274-0.444,0.238
		c-1.729-0.274-3.459-0.547-5.191-0.794c-0.288-0.042-0.273-0.234-0.308-0.405c-0.195-0.993-0.303-1.994-0.289-3.008
		c0.006-0.401,0.001-0.803,0.001-1.202c-0.003-1.042-0.015-2.081,0.098-3.118c0.039-0.361,0.128-0.513,0.552-0.5
		c1.089,0.037,2.139-0.158,3.003-0.889c0.856-0.726,0.837-1.759-0.024-2.491c-0.123-0.105-0.264-0.191-0.398-0.281
		C36.188,20.908,36.106,19.933,36.291,19.818z M31.98,22.31c0.212-0.142,0.444-0.246,0.693-0.291c0.325-0.059,0.418-0.22,0.384-0.55
		c-0.179-1.788-0.335-3.577-0.501-5.365c-0.04-0.443-0.096-0.886-0.116-1.331c-0.045-0.883,0.555-1.485,1.449-1.476
		c0.858,0.009,1.458,0.625,1.385,1.493c-0.173,2.1-0.378,4.197-0.57,6.298c-0.007,0.073-0.01,0.147-0.027,0.221
		c-0.094,0.406-0.001,0.657,0.47,0.747c0.321,0.061,0.806,0.188,0.795,0.52c-0.013,0.355-0.507,0.43-0.84,0.536
		c-0.398,0.125-0.81,0.178-1.229,0.176c-0.66-0.015-1.303-0.094-1.882-0.442C31.652,22.639,31.654,22.527,31.98,22.31z
		 M30.868,20.082c0.164-0.125,0.332-0.248,0.57-0.272c0.021,0.134,0.041,0.263,0.067,0.391c0.085,0.429,0.026,0.724-0.41,1.019
		c-1.191,0.8-1.063,2.164,0.268,2.877c0.46,0.246,0.526,0.471,0.486,0.976c-0.199,2.429-0.265,4.864,0.104,7.289
		c0.028,0.192,0.059,0.305-0.219,0.258c-1.215-0.203-2.432-0.395-3.65-0.568c-0.232-0.033-0.329-0.12-0.377-0.338
		c-0.138-0.61-0.268-1.223-0.26-1.849c0.021-1.526-0.146-3.063,0.165-4.579C28.053,23.148,29.148,21.418,30.868,20.082z
		 M28.408,19.97c0.196,0.125,0.273,0.212,0.084,0.432c-1.718,1.998-2.533,4.322-2.481,6.956c0.028,1.453-0.11,2.913,0.254,4.41
		c-0.828-0.128-1.586-0.253-2.348-0.358c-0.204-0.027-0.218-0.176-0.267-0.307c-0.232-0.629-0.395-1.277-0.446-1.945
		c-0.197-2.592-0.066-5.114,1.586-7.306c0.514-0.682,1.094-1.293,1.785-1.794C27.164,19.631,27.846,19.61,28.408,19.97z
		 M22.903,8.308c0.573,0.505,0.881,1.157,0.954,1.904c0.041,0.409,0.189,0.458,0.56,0.369c1.828-0.441,3.368,0.496,3.688,2.245
		c0.188,1.032-0.168,1.907-0.922,2.61c-0.295,0.273-0.304,0.447,0,0.716c0.565,0.5,0.883,1.144,0.962,1.901
		c0.023,0.216-0.005,0.297-0.275,0.264c-0.834-0.104-1.579,0.148-2.242,0.666c-1.164,0.908-1.777,1.639-2.881,3.477
		c-0.275-0.767-0.54-1.505-0.804-2.244c-0.092-0.26,0.035-0.5,0.097-0.736c0.48-1.804,1.395-3.361,2.731-4.664
		c0.192-0.188,0.238-0.297,0.05-0.526c-0.727-0.893-0.717-0.899-1.506-0.037c-0.972,1.06-1.717,2.262-2.252,3.6
		c-0.174-0.071-0.183-0.236-0.24-0.362c-0.773-1.702-1.617-3.366-2.569-4.975c-0.159-0.269-0.277-0.32-0.526-0.118
		c-0.263,0.211-0.727,0.343-0.79,0.591c-0.063,0.238,0.27,0.583,0.438,0.876c0.654,1.127,1.243,2.29,1.827,3.541
		c-0.786-0.237-1.523-0.422-2.281-0.499c-0.711-0.071-1.423-0.078-2.137-0.056c-0.211,0.007-0.285,0.052-0.242,0.281
		c0.067,0.365-0.023,0.834,0.175,1.076c0.188,0.227,0.667,0.037,1.018,0.049c1.195,0.042,2.361,0.2,3.457,0.723
		c0.613,0.293,1.062,0.696,1.288,1.376c0.358,1.078,0.786,2.135,1.12,3.308c-0.787-0.333-1.523-0.61-2.297-0.775
		c-0.756-0.161-1.52-0.268-2.292-0.315c-0.206-0.013-0.274,0.03-0.284,0.258c-0.045,1.146-0.052,1.131,1.064,1.252
		c1.323,0.146,2.595,0.472,3.729,1.212c0.177,0.116,0.312,0.22,0.29,0.488c-0.15,1.78-0.186,3.557,0.339,5.348
		c-1.084-0.164-2.136-0.329-3.188-0.483c-0.558-0.082-1.115-0.18-1.677-0.216c-1.841-0.118-3.104-1.922-2.561-3.686
		c0.022-0.072,0.034-0.147,0.071-0.211c0.224-0.37,0.144-0.588-0.243-0.835c-1.479-0.942-1.804-2.625-0.835-4.101
		c0.368-0.559,0.368-0.559-0.226-0.867c-1.687-0.873-2.61-2.468-2.452-4.236c0.159-1.788,1.352-3.208,3.186-3.763
		c0.264-0.079,0.358-0.198,0.406-0.473c0.294-1.715,1.526-2.657,3.258-2.479c0.357,0.037,0.378-0.181,0.47-0.389
		C19.182,7.529,21.415,6.995,22.903,8.308z M11.667,26.518c-0.092-0.268-0.19-0.389-0.512-0.389
		c-2.207-0.002-3.511-1.916-2.724-3.984c0.124-0.323,0.082-0.474-0.221-0.665c-1.558-0.981-1.904-2.655-0.896-4.189
		c0.065-0.1,0.125-0.204,0.201-0.294c0.135-0.161,0.139-0.27-0.082-0.357c-0.192-0.077-0.372-0.186-0.553-0.284
		c-1.549-0.847-2.462-2.487-2.253-4.172c0.228-1.835,1.241-3.085,2.997-3.673c0.39-0.131,0.551-0.289,0.625-0.694
		c0.284-1.562,1.589-2.52,3.162-2.317c0.394,0.049,0.43-0.174,0.541-0.416c0.528-1.148,1.422-1.785,2.693-1.763
		c1.209,0.022,2.077,0.631,2.564,1.745c0.112,0.254,0.2,0.535,0.219,0.811c0.03,0.428,0.157,0.548,0.601,0.419
		c0.75-0.216,1.072-0.176,1.69,0.06c-0.703,0.27-1.367,0.578-1.785,1.155c-0.418,0.575-0.932,0.814-1.607,0.979
		c-1.438,0.351-2.395,1.31-2.899,2.702c-0.08,0.22-0.185,0.362-0.413,0.464c-3.974,1.79-4.617,7.026-1.192,9.715
		c0.21,0.167,0.244,0.289,0.163,0.542c-0.537,1.678-0.179,3.155,1.053,4.419c0.136,0.142,0.256,0.255,0.212,0.489
		c-0.26,1.447,0.16,2.695,1.158,3.761c0.038,0.04,0.066,0.091,0.111,0.149c-0.31,0.118-0.613,0.196-0.878,0.345
		c-0.28,0.156-0.339,0.038-0.423-0.201C12.707,29.418,12.175,27.974,11.667,26.518z M42.388,40.844
		c-3.489,0.549-6.981,1.077-10.474,1.615c-3.007,0.463-6.015,0.93-9.021,1.391c-1.79,0.274-3.581,0.545-5.373,0.809
		c-0.234,0.036-0.474,0.027-0.713,0.04c-3.375-0.004-6.113-2.469-6.474-5.841c-0.342-3.206,1.935-6.243,5.172-6.896
		c1.1-0.222,2.188-0.076,3.277,0.093c4.004,0.621,8.01,1.234,12.015,1.851c3.858,0.594,7.718,1.186,11.574,1.787
		c1.264,0.196,2.177,1.28,2.188,2.546C44.572,39.529,43.669,40.643,42.388,40.844z M39.12,36.843c-0.015,0-0.029,0.002-0.044,0
		c-0.177-0.025-0.228,0.053-0.227,0.224c0.009,0.803,0.009,1.605,0,2.408c-0.001,0.176,0.06,0.214,0.229,0.227
		c1.202,0.097,1.202,0.104,1.202-1.075v-0.67C40.281,36.783,40.281,36.783,39.12,36.843z M34.572,38.315V37.2
		c0-1.099,0.001-1.091-1.115-1.078c-0.25,0.003-0.322,0.068-0.316,0.319c0.015,0.95,0.005,1.903,0.005,2.852
		c0,1.175-0.001,1.166,1.159,1.124c0.213-0.009,0.278-0.062,0.272-0.277C34.564,39.531,34.572,38.924,34.572,38.315z M28.864,35.808
		c0-1.139,0-1.128-1.123-1.113c-0.267,0.002-0.311,0.093-0.309,0.33c0.012,1.068,0.005,2.14,0.005,3.21v2.541
		c0,1.075,0,1.061,1.08,1.069c0.309,0.002,0.354-0.104,0.353-0.376C28.86,39.582,28.864,37.694,28.864,35.808z M23.158,35.771
		c0-1.098,0-1.09-1.117-1.077c-0.251,0.002-0.321,0.07-0.317,0.321c0.013,1.084,0.005,2.169,0.005,3.253v2.499
		c0,1.081,0,1.068,1.071,1.077c0.293,0.002,0.364-0.076,0.362-0.365C23.15,39.576,23.158,37.675,23.158,35.771z M17.448,35.771
		c0-1.098,0-1.09-1.114-1.077c-0.252,0.002-0.321,0.07-0.318,0.321c0.014,1.084,0.005,2.169,0.005,3.253v2.499
		c0,1.081,0.001,1.068,1.071,1.077c0.292,0.002,0.365-0.076,0.363-0.365C17.443,39.576,17.448,37.675,17.448,35.771z M17.448,35.771
		c0-1.098,0-1.09-1.114-1.077c-0.252,0.002-0.321,0.07-0.318,0.321c0.014,1.084,0.005,2.169,0.005,3.253v2.499
		c0,1.081,0.001,1.068,1.071,1.077c0.292,0.002,0.365-0.076,0.363-0.365C17.443,39.576,17.448,37.675,17.448,35.771z M23.158,35.771
		c0-1.098,0-1.09-1.117-1.077c-0.251,0.002-0.321,0.07-0.317,0.321c0.013,1.084,0.005,2.169,0.005,3.253v2.499
		c0,1.081,0,1.068,1.071,1.077c0.293,0.002,0.364-0.076,0.362-0.365C23.15,39.576,23.158,37.675,23.158,35.771z M28.864,35.808
		c0-1.139,0-1.128-1.123-1.113c-0.267,0.002-0.311,0.093-0.309,0.33c0.012,1.068,0.005,2.14,0.005,3.21v2.541
		c0,1.075,0,1.061,1.08,1.069c0.309,0.002,0.354-0.104,0.353-0.376C28.86,39.582,28.864,37.694,28.864,35.808z M34.572,38.315V37.2
		c0-1.099,0.001-1.091-1.115-1.078c-0.25,0.003-0.322,0.068-0.316,0.319c0.015,0.95,0.005,1.903,0.005,2.852
		c0,1.175-0.001,1.166,1.159,1.124c0.213-0.009,0.278-0.062,0.272-0.277C34.564,39.531,34.572,38.924,34.572,38.315z M39.12,36.843
		c-0.015,0-0.029,0.002-0.044,0c-0.177-0.025-0.228,0.053-0.227,0.224c0.009,0.803,0.009,1.605,0,2.408
		c-0.001,0.176,0.06,0.214,0.229,0.227c1.202,0.097,1.202,0.104,1.202-1.075v-0.67C40.281,36.783,40.281,36.783,39.12,36.843z
		 M39.12,36.843c-0.015,0-0.029,0.002-0.044,0c-0.177-0.025-0.228,0.053-0.227,0.224c0.009,0.803,0.009,1.605,0,2.408
		c-0.001,0.176,0.06,0.214,0.229,0.227c1.202,0.097,1.202,0.104,1.202-1.075v-0.67C40.281,36.783,40.281,36.783,39.12,36.843z
		 M34.572,38.315V37.2c0-1.099,0.001-1.091-1.115-1.078c-0.25,0.003-0.322,0.068-0.316,0.319c0.015,0.95,0.005,1.903,0.005,2.852
		c0,1.175-0.001,1.166,1.159,1.124c0.213-0.009,0.278-0.062,0.272-0.277C34.564,39.531,34.572,38.924,34.572,38.315z M28.864,35.808
		c0-1.139,0-1.128-1.123-1.113c-0.267,0.002-0.311,0.093-0.309,0.33c0.012,1.068,0.005,2.14,0.005,3.21v2.541
		c0,1.075,0,1.061,1.08,1.069c0.309,0.002,0.354-0.104,0.353-0.376C28.86,39.582,28.864,37.694,28.864,35.808z M23.158,35.771
		c0-1.098,0-1.09-1.117-1.077c-0.251,0.002-0.321,0.07-0.317,0.321c0.013,1.084,0.005,2.169,0.005,3.253v2.499
		c0,1.081,0,1.068,1.071,1.077c0.293,0.002,0.364-0.076,0.362-0.365C23.15,39.576,23.158,37.675,23.158,35.771z M17.448,35.771
		c0-1.098,0-1.09-1.114-1.077c-0.252,0.002-0.321,0.07-0.318,0.321c0.014,1.084,0.005,2.169,0.005,3.253v2.499
		c0,1.081,0.001,1.068,1.071,1.077c0.292,0.002,0.365-0.076,0.363-0.365C17.443,39.576,17.448,37.675,17.448,35.771z"/>
	<path fill-rule="evenodd" clip-rule="evenodd" fill="#FEFEFE" d="M17.456,41.479c0.002,0.289-0.072,0.367-0.363,0.365
		c-1.07-0.009-1.071,0.004-1.071-1.077v-2.499c0-1.084,0.008-2.169-0.005-3.253c-0.003-0.251,0.065-0.319,0.318-0.321
		c1.114-0.013,1.114-0.021,1.114,1.077C17.448,37.675,17.443,39.576,17.456,41.479z"/>
	<path fill-rule="evenodd" clip-rule="evenodd" fill="#FEFEFE" d="M23.163,41.479c0.002,0.289-0.069,0.367-0.362,0.365
		c-1.071-0.009-1.071,0.004-1.071-1.077v-2.499c0-1.084,0.007-2.169-0.005-3.253c-0.004-0.251,0.065-0.319,0.317-0.321
		c1.117-0.013,1.117-0.021,1.117,1.077C23.158,37.675,23.15,39.576,23.163,41.479z"/>
	<path fill-rule="evenodd" clip-rule="evenodd" fill="#FEFEFE" d="M28.87,41.469c0.002,0.272-0.044,0.378-0.353,0.376
		c-1.08-0.009-1.08,0.006-1.08-1.069v-2.541c0-1.07,0.007-2.142-0.005-3.21c-0.002-0.237,0.042-0.328,0.309-0.33
		c1.123-0.015,1.123-0.025,1.123,1.113C28.864,37.694,28.86,39.582,28.87,41.469z"/>
	<path fill-rule="evenodd" clip-rule="evenodd" fill="#FEFEFE" d="M34.577,40.14c0.006,0.216-0.06,0.269-0.272,0.277
		c-1.16,0.042-1.159,0.051-1.159-1.124c0-0.948,0.01-1.901-0.005-2.852c-0.006-0.251,0.066-0.316,0.316-0.319
		c1.116-0.013,1.115-0.021,1.115,1.078v1.115C34.572,38.924,34.564,39.531,34.577,40.14z"/>
	<path fill-rule="evenodd" clip-rule="evenodd" fill="#FEFEFE" d="M40.281,37.956v0.67c0,1.179,0,1.172-1.202,1.075
		c-0.17-0.013-0.23-0.051-0.229-0.227c0.009-0.803,0.009-1.605,0-2.408c-0.001-0.171,0.05-0.249,0.227-0.224
		c0.015,0.002,0.029,0,0.044,0C40.281,36.783,40.281,36.783,40.281,37.956z"/>
	<path fill-rule="evenodd" clip-rule="evenodd" d="M17.456,41.479c0.002,0.289-0.072,0.367-0.363,0.365
		c-1.07-0.009-1.071,0.004-1.071-1.077v-2.499c0-1.084,0.008-2.169-0.005-3.253c-0.003-0.251,0.065-0.319,0.318-0.321
		c1.114-0.013,1.114-0.021,1.114,1.077C17.448,37.675,17.443,39.576,17.456,41.479z"/>
	<path fill-rule="evenodd" clip-rule="evenodd" d="M23.163,41.479c0.002,0.289-0.069,0.367-0.362,0.365
		c-1.071-0.009-1.071,0.004-1.071-1.077v-2.499c0-1.084,0.007-2.169-0.005-3.253c-0.004-0.251,0.065-0.319,0.317-0.321
		c1.117-0.013,1.117-0.021,1.117,1.077C23.158,37.675,23.15,39.576,23.163,41.479z"/>
	<path fill-rule="evenodd" clip-rule="evenodd" d="M28.87,41.469c0.002,0.272-0.044,0.378-0.353,0.376
		c-1.08-0.009-1.08,0.006-1.08-1.069v-2.541c0-1.07,0.007-2.142-0.005-3.21c-0.002-0.237,0.042-0.328,0.309-0.33
		c1.123-0.015,1.123-0.025,1.123,1.113C28.864,37.694,28.86,39.582,28.87,41.469z"/>
	<path fill-rule="evenodd" clip-rule="evenodd" d="M34.577,40.14c0.006,0.216-0.06,0.269-0.272,0.277
		c-1.16,0.042-1.159,0.051-1.159-1.124c0-0.948,0.01-1.901-0.005-2.852c-0.006-0.251,0.066-0.316,0.316-0.319
		c1.116-0.013,1.115-0.021,1.115,1.078v1.115C34.572,38.924,34.564,39.531,34.577,40.14z"/>
	<path fill-rule="evenodd" clip-rule="evenodd" d="M40.281,37.956v0.67c0,1.179,0,1.172-1.202,1.075
		c-0.17-0.013-0.23-0.051-0.229-0.227c0.009-0.803,0.009-1.605,0-2.408c-0.001-0.171,0.05-0.249,0.227-0.224
		c0.015,0.002,0.029,0,0.044,0C40.281,36.783,40.281,36.783,40.281,37.956z"/>
</g>
</svg>
