<?xml version="1.0" encoding="utf-8"?>
<!-- Generator: Adobe Illustrator 16.0.0, SVG Export Plug-In . SVG Version: 6.00 Build 0)  -->
<!DOCTYPE svg PUBLIC "-//W3C//DTD SVG 1.1//EN" "http://www.w3.org/Graphics/SVG/1.1/DTD/svg11.dtd">
<svg version="1.1" id="Layer_1" xmlns="http://www.w3.org/2000/svg" xmlns:xlink="http://www.w3.org/1999/xlink" x="0px" y="0px"
	 width="48px" height="48px" viewBox="0 0 48 48" enable-background="new 0 0 48 48" xml:space="preserve">
<g>
	<path fill-rule="evenodd" clip-rule="evenodd" d="M15.792,12.958c-0.533-0.042-0.956,0.315-0.989,0.835
		c-0.033,0.517,0.344,0.955,0.851,0.989c0.488,0.035,0.949-0.38,0.979-0.877C16.659,13.429,16.276,12.997,15.792,12.958z
		 M15.737,9.26c-0.492-0.016-0.903,0.357-0.935,0.847c-0.033,0.526,0.336,0.95,0.851,0.981c0.508,0.029,0.951-0.364,0.979-0.87
		C16.659,9.724,16.241,9.276,15.737,9.26z M21.233,7.411c-0.484,0.001-0.892,0.398-0.909,0.884
		c-0.017,0.522,0.372,0.935,0.892,0.946c0.516,0.012,0.938-0.39,0.942-0.901C22.163,7.837,21.735,7.408,21.233,7.411z
		 M21.237,12.952c-0.502,0-0.893,0.373-0.912,0.87c-0.02,0.508,0.382,0.946,0.886,0.963c0.497,0.016,0.939-0.409,0.948-0.91
		C22.168,13.367,21.754,12.952,21.237,12.952z M24.898,11.109c-0.515,0.011-0.916,0.439-0.893,0.947
		c0.02,0.483,0.437,0.885,0.914,0.886c0.502,0.001,0.925-0.428,0.919-0.934C25.833,11.493,25.418,11.096,24.898,11.109z
		 M24.898,11.109c-0.515,0.011-0.916,0.439-0.893,0.947c0.02,0.483,0.437,0.885,0.914,0.886c0.502,0.001,0.925-0.428,0.919-0.934
		C25.833,11.493,25.418,11.096,24.898,11.109z M21.237,12.952c-0.502,0-0.893,0.373-0.912,0.87c-0.02,0.508,0.382,0.946,0.886,0.963
		c0.497,0.016,0.939-0.409,0.948-0.91C22.168,13.367,21.754,12.952,21.237,12.952z M21.216,9.241
		c0.516,0.012,0.938-0.39,0.942-0.901c0.005-0.502-0.423-0.932-0.925-0.929c-0.484,0.001-0.892,0.398-0.909,0.884
		C20.308,8.816,20.696,9.229,21.216,9.241z M15.653,11.087c0.508,0.029,0.951-0.364,0.979-0.87c0.027-0.494-0.391-0.941-0.895-0.958
		c-0.492-0.016-0.903,0.357-0.935,0.847C14.77,10.632,15.139,11.057,15.653,11.087z M15.792,12.958
		c-0.533-0.042-0.956,0.315-0.989,0.835c-0.033,0.517,0.344,0.955,0.851,0.989c0.488,0.035,0.949-0.38,0.979-0.877
		C16.659,13.429,16.276,12.997,15.792,12.958z M46.045,42.292c-0.17-0.826-0.576-1.549-1.056-2.223
		c-0.721-1.009-1.473-1.997-2.229-2.979c-0.204-0.266-0.263-0.5-0.159-0.827c0.37-1.19,0.566-2.414,0.628-3.658
		c0.141-2.957-0.201-5.894-0.396-8.838c-0.023-0.337,0.009-0.602,0.242-0.884c0.653-0.792,1.044-1.712,1.146-2.742
		c0.148-1.491,0.014-2.986,0.064-4.203c0-1.554-0.003-2.831,0.002-4.108c0.003-0.987-0.354-1.822-1.034-2.526
		c-0.481-0.496-1.047-0.871-1.656-1.188c-1.465-0.762-3.048-1.092-4.671-1.168c-2.157-0.101-4.06-0.778-5.73-2.159
		c-0.983-0.813-2.064-1.495-3.213-2.064c-2.344-1.158-4.664-1.129-6.979,0.094c-0.973,0.514-1.901,1.103-2.716,1.837
		c-0.724,0.654-1.551,0.935-2.493,1.001C14.758,5.731,13.767,5.94,12.977,6.7c-0.109,0.104-0.279,0.159-0.432,0.2
		c-0.828,0.235-1.664,0.448-2.49,0.688C8.985,7.895,7.837,8.016,6.861,8.534c-1.983,1.054-3.106,2.741-3.139,5.041
		c-0.025,1.944-0.01,3.888-0.003,5.832c0.003,0.742,0.072,1.5,0.431,2.148c0.392,0.706,0.417,1.436,0.398,2.191
		c-0.054,2.271-0.424,4.51-0.699,6.76c-0.165,1.355-0.331,2.726,0.68,3.843c0.46,0.509,0.437,0.938,0.132,1.465
		c-0.215,0.373-0.395,0.767-0.597,1.146c-0.547,1.03-1.134,2.04-1.61,3.105c-0.465,1.038-0.68,2.101-0.504,3.251
		c0.234,1.537,1.153,2.492,2.69,2.722c1.416,0.212,2.796-0.036,4.178-0.282c1.395-0.248,2.767-0.635,4.215-0.478
		c1.645,0.183,3.3,0.268,4.94,0.472c5.132,0.637,10.24,0.331,15.339-0.324c1.563-0.2,3.099-0.411,4.62,0.206
		c1.667,0.678,3.378,0.556,5.096,0.22c0.657-0.13,1.281-0.349,1.844-0.717C45.869,44.484,46.285,43.465,46.045,42.292z
		 M42.396,19.799c-0.044,1.104-0.652,1.955-1.472,2.658c-0.729,0.625-1.568,1.06-2.53,1.455c0.556-2.196,0.68-4.28-0.942-6.131
		c1.815-0.354,3.463-0.952,4.957-2.034C42.409,17.153,42.451,18.479,42.396,19.799z M41.875,10.553
		c0.611,0.667,0.651,1.455,0.339,2.343c-0.582-0.883-1.324-1.455-2.278-1.773c-0.421-0.141-0.663-0.536-0.915-0.882
		c-0.282-0.389-0.545-0.791-0.89-1.295C39.593,9.199,40.904,9.492,41.875,10.553z M5.566,13.642
		c0.015-1.839,1.095-3.223,2.854-3.703c0.791-0.216,1.58-0.434,2.461-0.675c-0.288,0.534-0.674,0.819-1.066,1.094
		C9.237,10.765,9.1,11.231,9.416,11.72c0.317,0.486,0.821,0.551,1.412,0.18c0.586-0.369,1.074-0.845,1.499-1.385
		c0.301-0.38,0.613-0.759,0.858-1.175c0.692-1.188,1.629-1.858,3.076-1.905c1.196-0.041,2.269-0.535,3.205-1.362
		c1.349-1.192,2.884-2.063,4.724-2.302c1.023-0.132,1.963,0.089,2.871,0.517c1.146,0.539,2.181,1.26,3.149,2.063
		c0.998,0.825,2.111,1.417,3.321,1.851c0.287,0.104,0.563,0.242,0.855,0.322c1.203,0.332,2.079,1.026,2.699,2.132
		c0.604,1.079,1.401,2.004,2.661,2.394c0.275,0.085,0.488,0.301,0.671,0.527c0.554,0.687,0.46,1.116-0.345,1.449
		c-1.713,0.705-3.528,0.974-5.348,1.192c-4.625,0.556-9.265,0.591-13.905,0.315c-3.646-0.216-7.276-0.589-10.781-1.709
		c-0.393-0.125-0.773-0.288-1.159-0.435c-0.659-0.252-1.119-0.098-1.344,0.455c-0.221,0.542,0.006,0.986,0.661,1.26
		c1.699,0.71,3.482,1.131,5.293,1.415c6.931,1.085,13.896,1.195,20.884,0.707c0.932-0.065,1.642,0.458,2.033,1.263
		c0.805,1.658,0.604,3.312-0.217,4.916c-0.116,0.225-0.318,0.307-0.563,0.363c-2.445,0.564-4.928,0.819-7.426,0.962
		c-3.328,0.188-6.656,0.17-9.979-0.109c-3.048-0.256-6.077-0.645-8.935-1.839c-0.934-0.39-1.802-0.894-2.525-1.615
		c-0.791-0.787-1.2-1.731-1.2-2.851C5.565,17.421,5.553,15.532,5.566,13.642z M43.466,43.781c-1.464,0.526-2.97,0.698-4.495,0.25
		c-1.188-0.351-2.365-0.802-3.629-0.689c-1.361,0.12-2.714,0.32-4.071,0.471c-4.357,0.471-8.714,0.636-13.085,0.112
		c-1.979-0.238-3.969-0.453-5.965-0.522c-1.234-0.044-2.418,0.319-3.623,0.517c-1.205,0.199-2.403,0.479-3.638,0.301
		c-0.786-0.111-1.044-0.397-1.181-1.16c-0.134-0.739,0.003-1.423,0.3-2.098c0.694-1.58,1.63-3.032,2.356-4.626
		c1.037,0.799,2.082,1.527,3.198,2.146c0.592,0.328,1.161,0.154,1.391-0.4c0.196-0.475,0.035-0.898-0.502-1.21
		c-1.089-0.636-2.135-1.333-3.101-2.142C7.241,34.58,7.07,34.422,6.89,34.272c-0.987-0.828-1.476-1.795-1.267-3.162
		c0.343-2.235,0.625-4.484,0.747-6.828c1.479,1.011,3.056,1.629,4.703,2.071c2.736,0.736,5.54,1.054,8.363,1.206
		c3.562,0.194,7.124,0.188,10.68-0.108c3.179-0.265,6.323-0.71,9.294-1.955c0.541-0.229,1.062-0.513,1.655-0.802
		c0.155,2.668,0.476,5.282,0.314,7.913c-0.118,1.935-0.537,3.804-1.493,5.519c-0.352,0.631-0.275,1.088,0.231,1.398
		c0.497,0.304,0.983,0.142,1.353-0.448c0.058-0.091,0.108-0.187,0.212-0.366c0.357,0.462,0.691,0.889,1.018,1.32
		c0.521,0.688,1.033,1.385,1.39,2.175C44.449,42.997,44.288,43.484,43.466,43.781z M24.92,12.942
		c0.502,0.001,0.925-0.428,0.919-0.934c-0.006-0.515-0.421-0.912-0.94-0.899c-0.515,0.011-0.916,0.439-0.893,0.947
		C24.025,12.539,24.442,12.941,24.92,12.942z M21.237,12.952c-0.502,0-0.893,0.373-0.912,0.87c-0.02,0.508,0.382,0.946,0.886,0.963
		c0.497,0.016,0.939-0.409,0.948-0.91C22.168,13.367,21.754,12.952,21.237,12.952z M21.216,9.241
		c0.516,0.012,0.938-0.39,0.942-0.901c0.005-0.502-0.423-0.932-0.925-0.929c-0.484,0.001-0.892,0.398-0.909,0.884
		C20.308,8.816,20.696,9.229,21.216,9.241z M15.653,11.087c0.508,0.029,0.951-0.364,0.979-0.87c0.027-0.494-0.391-0.941-0.895-0.958
		c-0.492-0.016-0.903,0.357-0.935,0.847C14.77,10.632,15.139,11.057,15.653,11.087z M15.792,12.958
		c-0.533-0.042-0.956,0.315-0.989,0.835c-0.033,0.517,0.344,0.955,0.851,0.989c0.488,0.035,0.949-0.38,0.979-0.877
		C16.659,13.429,16.276,12.997,15.792,12.958z M15.792,12.958c-0.533-0.042-0.956,0.315-0.989,0.835
		c-0.033,0.517,0.344,0.955,0.851,0.989c0.488,0.035,0.949-0.38,0.979-0.877C16.659,13.429,16.276,12.997,15.792,12.958z
		 M15.737,9.26c-0.492-0.016-0.903,0.357-0.935,0.847c-0.033,0.526,0.336,0.95,0.851,0.981c0.508,0.029,0.951-0.364,0.979-0.87
		C16.659,9.724,16.241,9.276,15.737,9.26z M21.233,7.411c-0.484,0.001-0.892,0.398-0.909,0.884
		c-0.017,0.522,0.372,0.935,0.892,0.946c0.516,0.012,0.938-0.39,0.942-0.901C22.163,7.837,21.735,7.408,21.233,7.411z
		 M21.237,12.952c-0.502,0-0.893,0.373-0.912,0.87c-0.02,0.508,0.382,0.946,0.886,0.963c0.497,0.016,0.939-0.409,0.948-0.91
		C22.168,13.367,21.754,12.952,21.237,12.952z M24.898,11.109c-0.515,0.011-0.916,0.439-0.893,0.947
		c0.02,0.483,0.437,0.885,0.914,0.886c0.502,0.001,0.925-0.428,0.919-0.934C25.833,11.493,25.418,11.096,24.898,11.109z
		 M24.898,11.109c-0.515,0.011-0.916,0.439-0.893,0.947c0.02,0.483,0.437,0.885,0.914,0.886c0.502,0.001,0.925-0.428,0.919-0.934
		C25.833,11.493,25.418,11.096,24.898,11.109z M21.237,12.952c-0.502,0-0.893,0.373-0.912,0.87c-0.02,0.508,0.382,0.946,0.886,0.963
		c0.497,0.016,0.939-0.409,0.948-0.91C22.168,13.367,21.754,12.952,21.237,12.952z M21.233,7.411
		c-0.484,0.001-0.892,0.398-0.909,0.884c-0.017,0.522,0.372,0.935,0.892,0.946c0.516,0.012,0.938-0.39,0.942-0.901
		C22.163,7.837,21.735,7.408,21.233,7.411z M15.737,9.26c-0.492-0.016-0.903,0.357-0.935,0.847c-0.033,0.526,0.336,0.95,0.851,0.981
		c0.508,0.029,0.951-0.364,0.979-0.87C16.659,9.724,16.241,9.276,15.737,9.26z M15.792,12.958c-0.533-0.042-0.956,0.315-0.989,0.835
		c-0.033,0.517,0.344,0.955,0.851,0.989c0.488,0.035,0.949-0.38,0.979-0.877C16.659,13.429,16.276,12.997,15.792,12.958z"/>
	<path fill-rule="evenodd" clip-rule="evenodd" fill="#FEFEFE" d="M16.632,13.906c-0.029,0.497-0.49,0.912-0.979,0.877
		c-0.507-0.034-0.884-0.472-0.851-0.989c0.033-0.52,0.456-0.877,0.989-0.835C16.276,12.997,16.659,13.429,16.632,13.906z"/>
	<path fill-rule="evenodd" clip-rule="evenodd" fill="#FEFEFE" d="M14.803,10.106c0.031-0.49,0.442-0.862,0.935-0.847
		c0.504,0.016,0.922,0.464,0.895,0.958c-0.027,0.506-0.471,0.899-0.979,0.87C15.139,11.057,14.77,10.632,14.803,10.106z"/>
	<path fill-rule="evenodd" clip-rule="evenodd" fill="#FEFEFE" d="M20.324,8.294c0.018-0.485,0.425-0.882,0.909-0.884
		c0.502-0.003,0.93,0.426,0.925,0.929c-0.005,0.511-0.427,0.913-0.942,0.901C20.696,9.229,20.308,8.816,20.324,8.294z"/>
	<path fill-rule="evenodd" clip-rule="evenodd" fill="#FEFEFE" d="M22.159,13.875c-0.009,0.501-0.451,0.926-0.948,0.91
		c-0.504-0.017-0.905-0.455-0.886-0.963c0.02-0.497,0.41-0.87,0.912-0.87C21.754,12.952,22.168,13.367,22.159,13.875z"/>
	<path fill-rule="evenodd" clip-rule="evenodd" fill="#FEFEFE" d="M25.839,12.008c0.006,0.506-0.417,0.936-0.919,0.934
		c-0.478-0.001-0.895-0.403-0.914-0.886c-0.023-0.508,0.378-0.936,0.893-0.947C25.418,11.096,25.833,11.493,25.839,12.008z"/>
	<path fill-rule="evenodd" clip-rule="evenodd" fill="#010101" d="M25.839,12.008c0.006,0.506-0.417,0.936-0.919,0.934
		c-0.478-0.001-0.895-0.403-0.914-0.886c-0.023-0.508,0.378-0.936,0.893-0.947C25.418,11.096,25.833,11.493,25.839,12.008z"/>
	<path fill-rule="evenodd" clip-rule="evenodd" fill="#020202" d="M22.159,13.875c-0.009,0.501-0.451,0.926-0.948,0.91
		c-0.504-0.017-0.905-0.455-0.886-0.963c0.02-0.497,0.41-0.87,0.912-0.87C21.754,12.952,22.168,13.367,22.159,13.875z"/>
	<path fill-rule="evenodd" clip-rule="evenodd" fill="#010101" d="M22.158,8.339c-0.005,0.511-0.427,0.913-0.942,0.901
		c-0.52-0.011-0.908-0.424-0.892-0.946c0.018-0.485,0.425-0.882,0.909-0.884C21.735,7.408,22.163,7.837,22.158,8.339z"/>
	<path fill-rule="evenodd" clip-rule="evenodd" fill="#020202" d="M16.632,10.217c-0.027,0.506-0.471,0.899-0.979,0.87
		c-0.515-0.031-0.884-0.455-0.851-0.981c0.031-0.49,0.442-0.862,0.935-0.847C16.241,9.276,16.659,9.724,16.632,10.217z"/>
	<path fill-rule="evenodd" clip-rule="evenodd" fill="#020202" d="M16.632,13.906c-0.029,0.497-0.49,0.912-0.979,0.877
		c-0.507-0.034-0.884-0.472-0.851-0.989c0.033-0.52,0.456-0.877,0.989-0.835C16.276,12.997,16.659,13.429,16.632,13.906z"/>
</g>
</svg>
