<?xml version="1.0" encoding="utf-8"?>
<!-- Generator: Adobe Illustrator 16.0.0, SVG Export Plug-In . SVG Version: 6.00 Build 0)  -->
<!DOCTYPE svg PUBLIC "-//W3C//DTD SVG 1.1//EN" "http://www.w3.org/Graphics/SVG/1.1/DTD/svg11.dtd">
<svg version="1.1" id="Layer_1" xmlns="http://www.w3.org/2000/svg" xmlns:xlink="http://www.w3.org/1999/xlink" x="0px" y="0px"
	 width="48px" height="48px" viewBox="0 0 48 48" enable-background="new 0 0 48 48" xml:space="preserve">
<g>
	<path fill-rule="evenodd" clip-rule="evenodd" d="M30.274,35.396c-0.092-0.104-0.22-0.184-0.345-0.242
		c-0.326-0.162-0.629-0.104-0.826,0.203c-0.192,0.297-0.156,0.605,0.119,0.85c0.794,0.703,1.143,1.629,1.328,2.637
		c0.114,0.617,0,1.18-0.383,1.691c-0.272,0.363-0.228,0.727,0.078,0.953c0.29,0.217,0.656,0.133,0.939-0.223
		c0.5-0.629,0.711-1.355,0.707-2.156C31.854,37.656,31.216,36.459,30.274,35.396z M30.274,35.396
		c-0.092-0.104-0.22-0.184-0.345-0.242c-0.326-0.162-0.629-0.104-0.826,0.203c-0.192,0.297-0.156,0.605,0.119,0.85
		c0.794,0.703,1.143,1.629,1.328,2.637c0.114,0.617,0,1.18-0.383,1.691c-0.272,0.363-0.228,0.727,0.078,0.953
		c0.29,0.217,0.656,0.133,0.939-0.223c0.5-0.629,0.711-1.355,0.707-2.156C31.854,37.656,31.216,36.459,30.274,35.396z
		 M30.274,35.396c-0.092-0.104-0.22-0.184-0.345-0.242c-0.326-0.162-0.629-0.104-0.826,0.203c-0.192,0.297-0.156,0.605,0.119,0.85
		c0.794,0.703,1.143,1.629,1.328,2.637c0.114,0.617,0,1.18-0.383,1.691c-0.272,0.363-0.228,0.727,0.078,0.953
		c0.29,0.217,0.656,0.133,0.939-0.223c0.5-0.629,0.711-1.355,0.707-2.156C31.854,37.656,31.216,36.459,30.274,35.396z
		 M30.274,35.396c-0.092-0.104-0.22-0.184-0.345-0.242c-0.326-0.162-0.629-0.104-0.826,0.203c-0.192,0.297-0.156,0.605,0.119,0.85
		c0.794,0.703,1.143,1.629,1.328,2.637c0.114,0.617,0,1.18-0.383,1.691c-0.272,0.363-0.228,0.727,0.078,0.953
		c0.29,0.217,0.656,0.133,0.939-0.223c0.5-0.629,0.711-1.355,0.707-2.156C31.854,37.656,31.216,36.459,30.274,35.396z
		 M30.274,35.396c-0.092-0.104-0.22-0.184-0.345-0.242c-0.326-0.162-0.629-0.104-0.826,0.203c-0.192,0.297-0.156,0.605,0.119,0.85
		c0.794,0.703,1.143,1.629,1.328,2.637c0.114,0.617,0,1.18-0.383,1.691c-0.272,0.363-0.228,0.727,0.078,0.953
		c0.29,0.217,0.656,0.133,0.939-0.223c0.5-0.629,0.711-1.355,0.707-2.156C31.854,37.656,31.216,36.459,30.274,35.396z
		 M30.274,35.396c-0.092-0.104-0.22-0.184-0.345-0.242c-0.326-0.162-0.629-0.104-0.826,0.203c-0.192,0.297-0.156,0.605,0.119,0.85
		c0.794,0.703,1.143,1.629,1.328,2.637c0.114,0.617,0,1.18-0.383,1.691c-0.272,0.363-0.228,0.727,0.078,0.953
		c0.29,0.217,0.656,0.133,0.939-0.223c0.5-0.629,0.711-1.355,0.707-2.156C31.854,37.656,31.216,36.459,30.274,35.396z
		 M42.693,29.521c0.438-2.184,1.29-4.164,2.668-5.915c0.185-0.233,0.319-0.488,0.159-0.779c-0.155-0.285-0.413-0.411-0.745-0.406
		c-0.979,0.014-1.948,0.092-2.906,0.306c-1.812,0.406-3.429,1.188-4.844,2.565c0-0.307,0-0.496,0.001-0.686
		c0.019-2.762,0.629-5.392,1.785-7.896c0.125-0.27,0.148-0.513-0.029-0.751c-0.179-0.238-0.445-0.318-0.717-0.254
		c-3.862,0.881-7.161,2.67-9.366,6.074c-1.711,2.639-2.195,5.49-1.086,8.509c0.197,0.533,0.478,1.035,0.727,1.572
		c-1.349,0.398-2.072,1.359-2.401,2.637c-0.428,1.662-0.395,3.369-0.401,5.068c-0.001,0.23,0.065,0.467,0.129,0.693
		c0.715,2.602,2.582,4.119,4.903,5.207c0.241,0.111,0.456,0.033,0.671-0.09c1.329-0.752,2.42-1.748,3.174-3.086
		c0.192-0.342,0.344-0.705,0.534-1.102c0.827,1.418,2.065,2.23,3.542,2.725c0.872,0.291,1.779,0.379,2.683,0.508
		c0.844,0.117,1.389-0.184,1.747-0.922c0.118-0.238,0.271-0.461,0.392-0.697c1.145-2.26,1.248-4.502-0.063-6.748
		c-0.594-1.016-1.426-1.793-2.305-2.539c-0.151-0.129-0.286-0.213-0.07-0.432C41.854,32.092,42.425,30.865,42.693,29.521z
		 M28.791,24.676c1.074-3.218,3.404-5.241,6.392-6.618c0.553-0.255,1.142-0.438,1.715-0.649c0.055-0.021,0.117-0.019,0.223-0.034
		c-0.439,1.178-0.8,2.338-1.03,3.539c-0.256,1.333-0.394,2.677-0.37,4.036c0.023,1.439-0.051,2.867-0.568,4.23
		c-0.53,1.4-1.378,2.539-2.743,3.229c-0.506,0.258-1.016-0.051-1.035-0.615c-0.107-3.348,1.194-6.18,3.19-8.763
		c0.182-0.235,0.387-0.455,0.581-0.684c0.292-0.344,0.305-0.701,0.033-0.964c-0.297-0.292-0.649-0.272-0.987,0.093
		c-1.249,1.353-2.218,2.89-2.954,4.573c-0.748,1.707-1.146,3.49-1.167,5.357c-0.001,0.115,0.077,0.279-0.064,0.34
		c-0.182,0.076-0.235-0.123-0.305-0.227C28.278,29.389,27.981,27.1,28.791,24.676z M33.796,39.439
		c-0.023,1.744-0.829,3.104-2.177,4.143c-1.033,0.795-0.686,0.809-1.833,0.086c-1.363-0.859-2.44-1.979-2.887-3.59
		c-0.089-0.318-0.161-0.645-0.15-0.977c0.047-1.256,0.059-2.518,0.276-3.76c0.158-0.912,0.462-1.762,1.446-2.096
		c1.072-0.365,2.04-0.096,2.921,0.576c0.822,0.627,1.213,1.547,1.647,2.436C33.531,37.258,33.837,38.307,33.796,39.439z
		 M42.447,37.371c0.334,0.652,0.479,1.357,0.476,2.092c-0.011,1.283-0.46,2.424-1.121,3.498c-0.092,0.148-0.188,0.225-0.373,0.213
		c-1.446-0.086-2.835-0.355-4.058-1.197c-0.367-0.252-0.722-0.535-0.947-0.91c-0.553-0.926-1.123-1.846-1.294-2.945
		c-0.089-0.574-0.265-1.131-0.473-1.674c-0.388-1.016-0.131-1.955,0.763-2.564c1.122-0.77,2.339-0.793,3.475-0.129
		C40.392,34.625,41.639,35.797,42.447,37.371z M39.859,32.303c-0.183,0.195-0.335,0.277-0.598,0.111
		c-0.317-0.203-0.684-0.328-1.06-0.369c-0.307-0.031-0.321-0.137-0.211-0.387c0.5-1.143,1.292-2.041,2.295-2.758
		c0.307-0.221,0.455-0.48,0.326-0.848c-0.162-0.461-0.646-0.564-1.129-0.217c-1.281,0.92-2.267,2.086-2.81,3.582
		c-0.124,0.342-0.251,0.553-0.653,0.588c-0.475,0.039-0.88,0.313-1.3,0.523l-0.691,0.559c-0.218,0.285-0.435,0.57-0.659,0.861
		c-0.369-0.254-0.348-0.451,0.052-0.637c0.184-0.084,0.343-0.217,0.514-0.326c0.216-0.195,0.431-0.391,0.646-0.588
		c1.135-1.26,1.794-2.742,2.129-4.396c0.159-0.785,0.71-1.361,1.261-1.898c1.521-1.484,3.408-2.132,5.464-2.353
		c0.103,0.125,0,0.194-0.042,0.263c-1.041,1.676-1.709,3.488-2.09,5.42C41.09,30.518,40.622,31.486,39.859,32.303z M29.93,35.154
		c-0.326-0.162-0.629-0.104-0.826,0.203c-0.192,0.297-0.156,0.605,0.119,0.85c0.794,0.703,1.143,1.629,1.328,2.637
		c0.114,0.617,0,1.18-0.383,1.691c-0.272,0.363-0.228,0.727,0.078,0.953c0.29,0.217,0.656,0.133,0.939-0.223
		c0.5-0.629,0.711-1.355,0.707-2.156c-0.039-1.453-0.677-2.65-1.618-3.713C30.183,35.293,30.055,35.213,29.93,35.154z
		 M30.274,35.396c-0.092-0.104-0.22-0.184-0.345-0.242c-0.326-0.162-0.629-0.104-0.826,0.203c-0.192,0.297-0.156,0.605,0.119,0.85
		c0.794,0.703,1.143,1.629,1.328,2.637c0.114,0.617,0,1.18-0.383,1.691c-0.272,0.363-0.228,0.727,0.078,0.953
		c0.29,0.217,0.656,0.133,0.939-0.223c0.5-0.629,0.711-1.355,0.707-2.156C31.854,37.656,31.216,36.459,30.274,35.396z
		 M30.274,35.396c-0.092-0.104-0.22-0.184-0.345-0.242c-0.326-0.162-0.629-0.104-0.826,0.203c-0.192,0.297-0.156,0.605,0.119,0.85
		c0.794,0.703,1.143,1.629,1.328,2.637c0.114,0.617,0,1.18-0.383,1.691c-0.272,0.363-0.228,0.727,0.078,0.953
		c0.29,0.217,0.656,0.133,0.939-0.223c0.5-0.629,0.711-1.355,0.707-2.156C31.854,37.656,31.216,36.459,30.274,35.396z
		 M30.274,35.396c-0.092-0.104-0.22-0.184-0.345-0.242c-0.326-0.162-0.629-0.104-0.826,0.203c-0.192,0.297-0.156,0.605,0.119,0.85
		c0.794,0.703,1.143,1.629,1.328,2.637c0.114,0.617,0,1.18-0.383,1.691c-0.272,0.363-0.228,0.727,0.078,0.953
		c0.29,0.217,0.656,0.133,0.939-0.223c0.5-0.629,0.711-1.355,0.707-2.156C31.854,37.656,31.216,36.459,30.274,35.396z
		 M30.274,35.396c-0.092-0.104-0.22-0.184-0.345-0.242c-0.326-0.162-0.629-0.104-0.826,0.203c-0.192,0.297-0.156,0.605,0.119,0.85
		c0.794,0.703,1.143,1.629,1.328,2.637c0.114,0.617,0,1.18-0.383,1.691c-0.272,0.363-0.228,0.727,0.078,0.953
		c0.29,0.217,0.656,0.133,0.939-0.223c0.5-0.629,0.711-1.355,0.707-2.156C31.854,37.656,31.216,36.459,30.274,35.396z"/>
	<path fill-rule="evenodd" clip-rule="evenodd" d="M15.852,32.508c-0.471-1.807-1.539-3.328-2.644-4.801
		c-0.326-0.438-0.833-0.416-1.13-0.002c-0.99,1.381-1.958,2.787-2.528,4.402c-0.74,2.092,0.822,4.262,3.067,4.314
		C14.692,36.473,16.37,34.496,15.852,32.508z M13.712,34.76c-0.688,0.49-1.598,0.479-2.288-0.027
		c-0.698-0.514-1.001-1.377-0.723-2.166c0.435-1.225,1.158-2.289,1.912-3.402c0.76,1.125,1.463,2.199,1.859,3.439
		C14.728,33.402,14.414,34.264,13.712,34.76z"/>
	<path fill-rule="evenodd" clip-rule="evenodd" d="M17,19.479c-2.946-0.003-5.893-0.003-8.839,0c-1.432,0-2.22,0.791-2.222,2.22
		v9.027c0,3.01,0.034,6.02-0.017,9.029c-0.02,1.236,0.833,2.273,2.264,2.246c2.93-0.055,5.861-0.016,8.792-0.018
		c1.483,0,2.245-0.75,2.245-2.229c0.003-6.021,0.003-12.039,0-18.058C19.221,20.26,18.433,19.479,17,19.479z M17.921,39.898
		c-0.002,0.633-0.224,0.846-0.858,0.846c-2.977,0.004-5.954,0.002-8.931,0c-0.685,0-0.877-0.201-0.877-0.91
		c-0.001-3.023-0.001-6.045-0.001-9.07c0-3.023,0-6.049,0.001-9.071c0-0.693,0.206-0.904,0.893-0.904
		c2.961-0.001,5.921-0.001,8.883,0c0.663,0,0.888,0.218,0.89,0.871C17.923,27.738,17.923,33.818,17.921,39.898z"/>
	<path fill-rule="evenodd" clip-rule="evenodd" d="M19.958,15.899c-0.028-0.017-0.053-0.036-0.078-0.054
		c-1.487-1.187-2.352-2.723-2.575-4.612c-0.026-0.22-0.145-0.472,0.198-0.633c0.771-0.366,1.126-1.014,1.124-1.864
		c-0.004-1.434,0.008-2.869-0.004-4.302c-0.009-1.204-0.81-2.011-2.018-2.016c-2.68-0.012-5.357-0.012-8.037,0
		C7.347,2.422,6.534,3.247,6.524,4.472c-0.01,1.37-0.002,2.742-0.002,4.112c0.001,0.879,0.365,1.554,1.153,1.962
		c0.193,0.1,0.231,0.201,0.212,0.399c-0.2,2.165-1.151,3.899-2.95,5.14c-1.713,1.183-2.545,2.796-2.527,4.887
		c0.026,3.134,0.006,6.271,0.006,9.406c0,3.152-0.003,6.301,0.003,9.453c0,0.393-0.001,0.793,0.069,1.176
		c0.513,2.744,2.685,4.561,5.486,4.574c3.071,0.016,6.145,0.006,9.217,0c0.329,0,0.665-0.012,0.986-0.072
		c2.752-0.52,4.582-2.723,4.583-5.535c0.006-6.113-0.045-12.227,0.025-18.338C22.814,19.181,22.086,17.227,19.958,15.899z
		 M7.836,8.666c-0.005-1.387,0-2.773-0.004-4.16c0-0.229,0.039-0.44,0.209-0.605c0.201-0.194,0.465-0.224,0.708-0.165
		C9.012,3.8,8.868,4.056,8.871,4.217c0.017,0.85,0.004,1.701,0.009,2.552C8.884,7.313,9.092,7.56,9.532,7.563
		c0.448,0.003,0.656-0.237,0.661-0.781c0.004-0.867,0.017-1.733-0.006-2.6c-0.009-0.345,0.052-0.498,0.447-0.473
		c0.612,0.039,1.231,0.042,1.842,0c0.418-0.029,0.484,0.125,0.472,0.498c-0.027,0.85-0.011,1.701-0.007,2.552
		c0.002,0.553,0.199,0.795,0.639,0.803c0.46,0.009,0.672-0.244,0.674-0.818c0.004-0.898,0.012-1.797-0.004-2.694
		c-0.005-0.271,0.075-0.344,0.343-0.336c0.644,0.02,1.291,0,1.937,0.009c0.582,0.007,0.784,0.214,0.79,0.81
		c0.009,0.677,0.003,1.354,0.003,2.032c0,0.692-0.003,1.386,0,2.079c0.001,0.325-0.096,0.585-0.425,0.713
		c-0.462,0.182-0.624,0.078-0.624-0.411c-0.002-0.85,0.003-1.701-0.003-2.551c-0.003-0.524-0.199-0.757-0.62-0.77
		c-0.444-0.014-0.67,0.228-0.674,0.767c-0.009,0.883-0.022,1.765,0.006,2.646c0.012,0.367-0.108,0.453-0.453,0.438
		c-0.627-0.028-1.259-0.025-1.889-0.001c-0.322,0.011-0.438-0.069-0.429-0.412c0.024-0.897,0.016-1.797,0.005-2.694
		c-0.006-0.496-0.202-0.72-0.603-0.741c-0.438-0.024-0.682,0.209-0.688,0.697c-0.013,0.897-0.019,1.796,0.002,2.694
		c0.008,0.334-0.052,0.48-0.431,0.458C9.885,9.442,9.268,9.474,8.654,9.466C8.095,9.458,7.838,9.211,7.836,8.666z M21.446,39.877
		c-0.002,2.596-1.793,4.395-4.388,4.4c-2.978,0.006-5.956,0.006-8.935,0C5.518,44.273,3.73,42.5,3.72,39.895
		c-0.013-3.168-0.003-6.336-0.003-9.502c0-3.121,0.022-6.242-0.009-9.361c-0.017-1.647,0.615-2.901,1.963-3.85
		c2.072-1.46,3.248-3.468,3.488-6c0.03-0.321,0.136-0.415,0.458-0.412c2.001,0.015,4.002,0.011,6.003,0.003
		c0.274-0.001,0.41,0.033,0.442,0.366c0.249,2.522,1.391,4.566,3.468,6.014c1.346,0.937,1.921,2.172,1.919,3.767
		C21.442,27.238,21.449,33.557,21.446,39.877z"/>
	<path fill-rule="evenodd" clip-rule="evenodd" fill="#FEFEFE" d="M31.893,39.109c0.004,0.801-0.207,1.527-0.707,2.156
		c-0.283,0.355-0.649,0.439-0.939,0.223c-0.306-0.227-0.351-0.59-0.078-0.953c0.383-0.512,0.497-1.074,0.383-1.691
		c-0.186-1.008-0.534-1.934-1.328-2.637c-0.275-0.244-0.312-0.553-0.119-0.85c0.197-0.307,0.5-0.365,0.826-0.203
		c0.125,0.059,0.253,0.139,0.345,0.242C31.216,36.459,31.854,37.656,31.893,39.109z"/>
	<path fill-rule="evenodd" clip-rule="evenodd" fill="#FEFEFE" d="M15.852,32.508c-0.471-1.807-1.539-3.328-2.644-4.801
		c-0.326-0.438-0.833-0.416-1.13-0.002c-0.99,1.381-1.958,2.787-2.528,4.402c-0.74,2.092,0.822,4.262,3.067,4.314
		C14.692,36.473,16.37,34.496,15.852,32.508z M13.712,34.76c-0.688,0.49-1.598,0.479-2.288-0.027
		c-0.698-0.514-1.001-1.377-0.723-2.166c0.435-1.225,1.158-2.289,1.912-3.402c0.76,1.125,1.463,2.199,1.859,3.439
		C14.728,33.402,14.414,34.264,13.712,34.76z"/>
	<path fill-rule="evenodd" clip-rule="evenodd" fill="#FEFEFE" d="M17,19.479c-2.946-0.003-5.893-0.003-8.839,0
		c-1.432,0-2.22,0.791-2.222,2.22v9.027c0,3.01,0.034,6.02-0.017,9.029c-0.02,1.236,0.833,2.273,2.264,2.246
		c2.93-0.055,5.861-0.016,8.792-0.018c1.483,0,2.245-0.75,2.245-2.229c0.003-6.021,0.003-12.039,0-18.058
		C19.221,20.26,18.433,19.479,17,19.479z M17.921,39.898c-0.002,0.633-0.224,0.846-0.858,0.846c-2.977,0.004-5.954,0.002-8.931,0
		c-0.685,0-0.877-0.201-0.877-0.91c-0.001-3.023-0.001-6.045-0.001-9.07c0-3.023,0-6.049,0.001-9.071
		c0-0.693,0.206-0.904,0.893-0.904c2.961-0.001,5.921-0.001,8.883,0c0.663,0,0.888,0.218,0.89,0.871
		C17.923,27.738,17.923,33.818,17.921,39.898z"/>
	<path fill-rule="evenodd" clip-rule="evenodd" d="M31.893,39.109c0.004,0.801-0.207,1.527-0.707,2.156
		c-0.283,0.355-0.649,0.439-0.939,0.223c-0.306-0.227-0.351-0.59-0.078-0.953c0.383-0.512,0.497-1.074,0.383-1.691
		c-0.186-1.008-0.534-1.934-1.328-2.637c-0.275-0.244-0.312-0.553-0.119-0.85c0.197-0.307,0.5-0.365,0.826-0.203
		c0.125,0.059,0.253,0.139,0.345,0.242C31.216,36.459,31.854,37.656,31.893,39.109z"/>
	<path fill-rule="evenodd" clip-rule="evenodd" d="M15.852,32.508c-0.471-1.807-1.539-3.328-2.644-4.801
		c-0.326-0.438-0.833-0.416-1.13-0.002c-0.99,1.381-1.958,2.787-2.528,4.402c-0.74,2.092,0.822,4.262,3.067,4.314
		C14.692,36.473,16.37,34.496,15.852,32.508z M13.712,34.76c-0.688,0.49-1.598,0.479-2.288-0.027
		c-0.698-0.514-1.001-1.377-0.723-2.166c0.435-1.225,1.158-2.289,1.912-3.402c0.76,1.125,1.463,2.199,1.859,3.439
		C14.728,33.402,14.414,34.264,13.712,34.76z"/>
	<path fill-rule="evenodd" clip-rule="evenodd" d="M17,19.479c-2.946-0.003-5.893-0.003-8.839,0c-1.432,0-2.22,0.791-2.222,2.22
		v9.027c0,3.01,0.034,6.02-0.017,9.029c-0.02,1.236,0.833,2.273,2.264,2.246c2.93-0.055,5.861-0.016,8.792-0.018
		c1.483,0,2.245-0.75,2.245-2.229c0.003-6.021,0.003-12.039,0-18.058C19.221,20.26,18.433,19.479,17,19.479z M17.921,39.898
		c-0.002,0.633-0.224,0.846-0.858,0.846c-2.977,0.004-5.954,0.002-8.931,0c-0.685,0-0.877-0.201-0.877-0.91
		c-0.001-3.023-0.001-6.045-0.001-9.07c0-3.023,0-6.049,0.001-9.071c0-0.693,0.206-0.904,0.893-0.904
		c2.961-0.001,5.921-0.001,8.883,0c0.663,0,0.888,0.218,0.89,0.871C17.923,27.738,17.923,33.818,17.921,39.898z"/>
	<path fill-rule="evenodd" clip-rule="evenodd" fill="#FEFEFE" d="M15.852,32.508c-0.471-1.807-1.539-3.328-2.644-4.801
		c-0.326-0.438-0.833-0.416-1.13-0.002c-0.99,1.381-1.958,2.787-2.528,4.402c-0.74,2.092,0.822,4.262,3.067,4.314
		C14.692,36.473,16.37,34.496,15.852,32.508z M13.712,34.76c-0.688,0.49-1.598,0.479-2.288-0.027
		c-0.698-0.514-1.001-1.377-0.723-2.166c0.435-1.225,1.158-2.289,1.912-3.402c0.76,1.125,1.463,2.199,1.859,3.439
		C14.728,33.402,14.414,34.264,13.712,34.76z"/>
	<path fill-rule="evenodd" clip-rule="evenodd" d="M15.852,32.508c-0.471-1.807-1.539-3.328-2.644-4.801
		c-0.326-0.438-0.833-0.416-1.13-0.002c-0.99,1.381-1.958,2.787-2.528,4.402c-0.74,2.092,0.822,4.262,3.067,4.314
		C14.692,36.473,16.37,34.496,15.852,32.508z M13.712,34.76c-0.688,0.49-1.598,0.479-2.288-0.027
		c-0.698-0.514-1.001-1.377-0.723-2.166c0.435-1.225,1.158-2.289,1.912-3.402c0.76,1.125,1.463,2.199,1.859,3.439
		C14.728,33.402,14.414,34.264,13.712,34.76z"/>
</g>
</svg>
