<?xml version="1.0" encoding="utf-8"?>
<!-- Generator: Adobe Illustrator 16.0.0, SVG Export Plug-In . SVG Version: 6.00 Build 0)  -->
<!DOCTYPE svg PUBLIC "-//W3C//DTD SVG 1.1//EN" "http://www.w3.org/Graphics/SVG/1.1/DTD/svg11.dtd">
<svg version="1.1" id="Layer_1" xmlns="http://www.w3.org/2000/svg" xmlns:xlink="http://www.w3.org/1999/xlink" x="0px" y="0px"
	 width="48px" height="48px" viewBox="0 0 48 48" enable-background="new 0 0 48 48" xml:space="preserve">
<g>
	<path fill-rule="evenodd" clip-rule="evenodd" d="M32.046,13.958c-0.038-0.356,0.136-0.371,0.401-0.298
		c0.295,0.08,0.557,0.221,0.796,0.41c1.915,1.507,2.928,3.48,3.062,5.909c0.02,0.812,0.02,0.812-0.77,0.746
		c-0.029-0.003-0.06-0.011-0.087-0.007c-0.466,0.071-0.557-0.125-0.571-0.585c-0.069-2.103-0.944-3.809-2.677-5.038
		c-0.134-0.095-0.15-0.187-0.149-0.317C32.053,14.503,32.074,14.227,32.046,13.958z"/>
	<path fill-rule="evenodd" clip-rule="evenodd" d="M40.044,30.657c-0.066-0.075-0.144-0.144-0.196-0.228
		c-0.154-0.249-0.288-0.242-0.526-0.058c-1.606,1.241-3.785,1.359-5.529,0.344c-0.274-0.159-0.517-0.561-0.795-0.462
		c-0.284,0.103-0.456,0.494-0.704,0.73c-0.209,0.199-0.151,0.305,0.047,0.459c1.161,0.902,2.478,1.345,3.762,1.386
		c1.441,0.007,2.777-0.401,3.816-1.117C40.57,31.264,40.57,31.264,40.044,30.657z M42.679,35.677
		c-0.205,0.123-0.663-0.283-0.703,0.37c-0.178,2.839-2.366,5.058-5.221,5.292c-0.384,0.032-0.463,0.134-0.455,0.494
		c0.023,1.059,0.007,1.062,1.06,0.879c3.292-0.574,5.553-2.917,6.019-6.24C43.49,35.677,43.49,35.677,42.679,35.677z M42.679,35.677
		c-0.205,0.123-0.663-0.283-0.703,0.37c-0.178,2.839-2.366,5.058-5.221,5.292c-0.384,0.032-0.463,0.134-0.455,0.494
		c0.023,1.059,0.007,1.062,1.06,0.879c3.292-0.574,5.553-2.917,6.019-6.24C43.49,35.677,43.49,35.677,42.679,35.677z M40.044,30.657
		c-0.066-0.075-0.144-0.144-0.196-0.228c-0.154-0.249-0.288-0.242-0.526-0.058c-1.606,1.241-3.785,1.359-5.529,0.344
		c-0.274-0.159-0.517-0.561-0.795-0.462c-0.284,0.103-0.456,0.494-0.704,0.73c-0.209,0.199-0.151,0.305,0.047,0.459
		c1.161,0.902,2.478,1.345,3.762,1.386c1.441,0.007,2.777-0.401,3.816-1.117C40.57,31.264,40.57,31.264,40.044,30.657z
		 M40.044,30.657c-0.066-0.075-0.144-0.144-0.196-0.228c-0.154-0.249-0.288-0.242-0.526-0.058c-1.606,1.241-3.785,1.359-5.529,0.344
		c-0.274-0.159-0.517-0.561-0.795-0.462c-0.284,0.103-0.456,0.494-0.704,0.73c-0.209,0.199-0.151,0.305,0.047,0.459
		c1.161,0.902,2.478,1.345,3.762,1.386c1.441,0.007,2.777-0.401,3.816-1.117C40.57,31.264,40.57,31.264,40.044,30.657z
		 M42.679,35.677c-0.205,0.123-0.663-0.283-0.703,0.37c-0.178,2.839-2.366,5.058-5.221,5.292c-0.384,0.032-0.463,0.134-0.455,0.494
		c0.023,1.059,0.007,1.062,1.06,0.879c3.292-0.574,5.553-2.917,6.019-6.24C43.49,35.677,43.49,35.677,42.679,35.677z M42.679,35.677
		c-0.205,0.123-0.663-0.283-0.703,0.37c-0.178,2.839-2.366,5.058-5.221,5.292c-0.384,0.032-0.463,0.134-0.455,0.494
		c0.023,1.059,0.007,1.062,1.06,0.879c3.292-0.574,5.553-2.917,6.019-6.24C43.49,35.677,43.49,35.677,42.679,35.677z M40.044,30.657
		c-0.066-0.075-0.144-0.144-0.196-0.228c-0.154-0.249-0.288-0.242-0.526-0.058c-1.606,1.241-3.785,1.359-5.529,0.344
		c-0.274-0.159-0.517-0.561-0.795-0.462c-0.284,0.103-0.456,0.494-0.704,0.73c-0.209,0.199-0.151,0.305,0.047,0.459
		c1.161,0.902,2.478,1.345,3.762,1.386c1.441,0.007,2.777-0.401,3.816-1.117C40.57,31.264,40.57,31.264,40.044,30.657z
		 M40.044,30.657c-0.066-0.075-0.144-0.144-0.196-0.228c-0.154-0.249-0.288-0.242-0.526-0.058c-1.606,1.241-3.785,1.359-5.529,0.344
		c-0.274-0.159-0.517-0.561-0.795-0.462c-0.284,0.103-0.456,0.494-0.704,0.73c-0.209,0.199-0.151,0.305,0.047,0.459
		c1.161,0.902,2.478,1.345,3.762,1.386c1.441,0.007,2.777-0.401,3.816-1.117C40.57,31.264,40.57,31.264,40.044,30.657z
		 M42.679,35.677c-0.205,0.123-0.663-0.283-0.703,0.37c-0.178,2.839-2.366,5.058-5.221,5.292c-0.384,0.032-0.463,0.134-0.455,0.494
		c0.023,1.059,0.007,1.062,1.06,0.879c3.292-0.574,5.553-2.917,6.019-6.24C43.49,35.677,43.49,35.677,42.679,35.677z M42.679,35.677
		c-0.205,0.123-0.663-0.283-0.703,0.37c-0.178,2.839-2.366,5.058-5.221,5.292c-0.384,0.032-0.463,0.134-0.455,0.494
		c0.023,1.059,0.007,1.062,1.06,0.879c3.292-0.574,5.553-2.917,6.019-6.24C43.49,35.677,43.49,35.677,42.679,35.677z M40.044,30.657
		c-0.066-0.075-0.144-0.144-0.196-0.228c-0.154-0.249-0.288-0.242-0.526-0.058c-1.606,1.241-3.785,1.359-5.529,0.344
		c-0.274-0.159-0.517-0.561-0.795-0.462c-0.284,0.103-0.456,0.494-0.704,0.73c-0.209,0.199-0.151,0.305,0.047,0.459
		c1.161,0.902,2.478,1.345,3.762,1.386c1.441,0.007,2.777-0.401,3.816-1.117C40.57,31.264,40.57,31.264,40.044,30.657z
		 M40.044,30.657c-0.066-0.075-0.144-0.144-0.196-0.228c-0.154-0.249-0.288-0.242-0.526-0.058c-1.606,1.241-3.785,1.359-5.529,0.344
		c-0.274-0.159-0.517-0.561-0.795-0.462c-0.284,0.103-0.456,0.494-0.704,0.73c-0.209,0.199-0.151,0.305,0.047,0.459
		c1.161,0.902,2.478,1.345,3.762,1.386c1.441,0.007,2.777-0.401,3.816-1.117C40.57,31.264,40.57,31.264,40.044,30.657z
		 M42.679,35.677c-0.205,0.123-0.663-0.283-0.703,0.37c-0.178,2.839-2.366,5.058-5.221,5.292c-0.384,0.032-0.463,0.134-0.455,0.494
		c0.023,1.059,0.007,1.062,1.06,0.879c3.292-0.574,5.553-2.917,6.019-6.24C43.49,35.677,43.49,35.677,42.679,35.677z M42.679,35.677
		c-0.205,0.123-0.663-0.283-0.703,0.37c-0.178,2.839-2.366,5.058-5.221,5.292c-0.384,0.032-0.463,0.134-0.455,0.494
		c0.023,1.059,0.007,1.062,1.06,0.879c3.292-0.574,5.553-2.917,6.019-6.24C43.49,35.677,43.49,35.677,42.679,35.677z M40.044,30.657
		c-0.066-0.075-0.144-0.144-0.196-0.228c-0.154-0.249-0.288-0.242-0.526-0.058c-1.606,1.241-3.785,1.359-5.529,0.344
		c-0.274-0.159-0.517-0.561-0.795-0.462c-0.284,0.103-0.456,0.494-0.704,0.73c-0.209,0.199-0.151,0.305,0.047,0.459
		c1.161,0.902,2.478,1.345,3.762,1.386c1.441,0.007,2.777-0.401,3.816-1.117C40.57,31.264,40.57,31.264,40.044,30.657z
		 M40.044,30.657c-0.066-0.075-0.144-0.144-0.196-0.228c-0.154-0.249-0.288-0.242-0.526-0.058c-1.606,1.241-3.785,1.359-5.529,0.344
		c-0.274-0.159-0.517-0.561-0.795-0.462c-0.284,0.103-0.456,0.494-0.704,0.73c-0.209,0.199-0.151,0.305,0.047,0.459
		c1.161,0.902,2.478,1.345,3.762,1.386c1.441,0.007,2.777-0.401,3.816-1.117C40.57,31.264,40.57,31.264,40.044,30.657z
		 M42.679,35.677c-0.205,0.123-0.663-0.283-0.703,0.37c-0.178,2.839-2.366,5.058-5.221,5.292c-0.384,0.032-0.463,0.134-0.455,0.494
		c0.023,1.059,0.007,1.062,1.06,0.879c3.292-0.574,5.553-2.917,6.019-6.24C43.49,35.677,43.49,35.677,42.679,35.677z M42.679,35.677
		c-0.205,0.123-0.663-0.283-0.703,0.37c-0.178,2.839-2.366,5.058-5.221,5.292c-0.384,0.032-0.463,0.134-0.455,0.494
		c0.023,1.059,0.007,1.062,1.06,0.879c3.292-0.574,5.553-2.917,6.019-6.24C43.49,35.677,43.49,35.677,42.679,35.677z M40.044,30.657
		c-0.066-0.075-0.144-0.144-0.196-0.228c-0.154-0.249-0.288-0.242-0.526-0.058c-1.606,1.241-3.785,1.359-5.529,0.344
		c-0.274-0.159-0.517-0.561-0.795-0.462c-0.284,0.103-0.456,0.494-0.704,0.73c-0.209,0.199-0.151,0.305,0.047,0.459
		c1.161,0.902,2.478,1.345,3.762,1.386c1.441,0.007,2.777-0.401,3.816-1.117C40.57,31.264,40.57,31.264,40.044,30.657z
		 M40.044,30.657c-0.066-0.075-0.144-0.144-0.196-0.228c-0.154-0.249-0.288-0.242-0.526-0.058c-1.606,1.241-3.785,1.359-5.529,0.344
		c-0.274-0.159-0.517-0.561-0.795-0.462c-0.284,0.103-0.456,0.494-0.704,0.73c-0.209,0.199-0.151,0.305,0.047,0.459
		c1.161,0.902,2.478,1.345,3.762,1.386c1.441,0.007,2.777-0.401,3.816-1.117C40.57,31.264,40.57,31.264,40.044,30.657z
		 M42.679,35.677c-0.205,0.123-0.663-0.283-0.703,0.37c-0.178,2.839-2.366,5.058-5.221,5.292c-0.384,0.032-0.463,0.134-0.455,0.494
		c0.023,1.059,0.007,1.062,1.06,0.879c3.292-0.574,5.553-2.917,6.019-6.24C43.49,35.677,43.49,35.677,42.679,35.677z M42.679,35.677
		c-0.205,0.123-0.663-0.283-0.703,0.37c-0.178,2.839-2.366,5.058-5.221,5.292c-0.384,0.032-0.463,0.134-0.455,0.494
		c0.023,1.059,0.007,1.062,1.06,0.879c3.292-0.574,5.553-2.917,6.019-6.24C43.49,35.677,43.49,35.677,42.679,35.677z M40.044,30.657
		c-0.066-0.075-0.144-0.144-0.196-0.228c-0.154-0.249-0.288-0.242-0.526-0.058c-1.606,1.241-3.785,1.359-5.529,0.344
		c-0.274-0.159-0.517-0.561-0.795-0.462c-0.284,0.103-0.456,0.494-0.704,0.73c-0.209,0.199-0.151,0.305,0.047,0.459
		c1.161,0.902,2.478,1.345,3.762,1.386c1.441,0.007,2.777-0.401,3.816-1.117C40.57,31.264,40.57,31.264,40.044,30.657z
		 M40.044,30.657c-0.066-0.075-0.144-0.144-0.196-0.228c-0.154-0.249-0.288-0.242-0.526-0.058c-1.606,1.241-3.785,1.359-5.529,0.344
		c-0.274-0.159-0.517-0.561-0.795-0.462c-0.284,0.103-0.456,0.494-0.704,0.73c-0.209,0.199-0.151,0.305,0.047,0.459
		c1.161,0.902,2.478,1.345,3.762,1.386c1.441,0.007,2.777-0.401,3.816-1.117C40.57,31.264,40.57,31.264,40.044,30.657z
		 M42.679,35.677c-0.205,0.123-0.663-0.283-0.703,0.37c-0.178,2.839-2.366,5.058-5.221,5.292c-0.384,0.032-0.463,0.134-0.455,0.494
		c0.023,1.059,0.007,1.062,1.06,0.879c3.292-0.574,5.553-2.917,6.019-6.24C43.49,35.677,43.49,35.677,42.679,35.677z M42.679,35.677
		c-0.205,0.123-0.663-0.283-0.703,0.37c-0.178,2.839-2.366,5.058-5.221,5.292c-0.384,0.032-0.463,0.134-0.455,0.494
		c0.023,1.059,0.007,1.062,1.06,0.879c3.292-0.574,5.553-2.917,6.019-6.24C43.49,35.677,43.49,35.677,42.679,35.677z M40.044,30.657
		c-0.066-0.075-0.144-0.144-0.196-0.228c-0.154-0.249-0.288-0.242-0.526-0.058c-1.606,1.241-3.785,1.359-5.529,0.344
		c-0.274-0.159-0.517-0.561-0.795-0.462c-0.284,0.103-0.456,0.494-0.704,0.73c-0.209,0.199-0.151,0.305,0.047,0.459
		c1.161,0.902,2.478,1.345,3.762,1.386c1.441,0.007,2.777-0.401,3.816-1.117C40.57,31.264,40.57,31.264,40.044,30.657z
		 M40.044,30.657c-0.066-0.075-0.144-0.144-0.196-0.228c-0.154-0.249-0.288-0.242-0.526-0.058c-1.606,1.241-3.785,1.359-5.529,0.344
		c-0.274-0.159-0.517-0.561-0.795-0.462c-0.284,0.103-0.456,0.494-0.704,0.73c-0.209,0.199-0.151,0.305,0.047,0.459
		c1.161,0.902,2.478,1.345,3.762,1.386c1.441,0.007,2.777-0.401,3.816-1.117C40.57,31.264,40.57,31.264,40.044,30.657z
		 M42.679,35.677c-0.205,0.123-0.663-0.283-0.703,0.37c-0.178,2.839-2.366,5.058-5.221,5.292c-0.384,0.032-0.463,0.134-0.455,0.494
		c0.023,1.059,0.007,1.062,1.06,0.879c3.292-0.574,5.553-2.917,6.019-6.24C43.49,35.677,43.49,35.677,42.679,35.677z M42.679,35.677
		c-0.205,0.123-0.663-0.283-0.703,0.37c-0.178,2.839-2.366,5.058-5.221,5.292c-0.384,0.032-0.463,0.134-0.455,0.494
		c0.023,1.059,0.007,1.062,1.06,0.879c3.292-0.574,5.553-2.917,6.019-6.24C43.49,35.677,43.49,35.677,42.679,35.677z M40.044,30.657
		c-0.066-0.075-0.144-0.144-0.196-0.228c-0.154-0.249-0.288-0.242-0.526-0.058c-1.606,1.241-3.785,1.359-5.529,0.344
		c-0.274-0.159-0.517-0.561-0.795-0.462c-0.284,0.103-0.456,0.494-0.704,0.73c-0.209,0.199-0.151,0.305,0.047,0.459
		c1.161,0.902,2.478,1.345,3.762,1.386c1.441,0.007,2.777-0.401,3.816-1.117C40.57,31.264,40.57,31.264,40.044,30.657z
		 M46.092,33.254c-1.131-3.992-3.725-6.458-7.749-7.434c-0.521-0.124-0.534-0.116-0.283-0.582c1.033-1.922,1.375-3.992,1.149-6.132
		c-0.312-2.966-1.679-5.399-4.013-7.262c-1.199-0.958-2.576-1.354-4.114-1.088c-0.499,0.085-0.981,0.225-1.43,0.46
		c-0.253,0.133-0.327,0.054-0.323-0.211c0.01-0.588,0-1.177,0.005-1.766c0.004-0.457,0.034-0.489,0.49-0.492
		c0.949-0.003,1.895,0,2.843,0c2.99-0.002,5.29-2.373,5.195-5.356c-0.006-0.158,0.003-0.318-0.117-0.447H32.49
		c-0.141,0.086-0.295,0.031-0.443,0.042c-0.008,0.001-0.018,0.001-0.025,0.002c-0.273-0.009-0.546,0.012-0.809,0.089
		c-1.824,0.529-3.281,2.3-3.503,4.195c-0.137,1.175-0.047,2.352-0.075,3.528c-0.013,0.559,0,0.551-0.489,0.325
		c-0.953-0.438-1.949-0.56-2.985-0.393c-1.248,0.201-2.233,0.888-3.114,1.73c-1.253,1.199-2.18,2.624-2.737,4.274
		c-0.121,0.362-0.298,0.481-0.664,0.377c-0.364-0.103-0.735-0.08-1.109-0.017c-0.793,0.135-1.464,0.502-2.032,1.056
		c-0.189,0.184-0.306,0.186-0.491,0c-0.369-0.367-0.795-0.667-1.292-0.838c-0.339-0.117-0.457-0.327-0.451-0.68
		c0.016-1.004,0.004-2.01,0.006-3.015c0.001-0.542,0.019-0.547,0.555-0.563c1.118-0.03,2.236,0.051,3.354-0.069
		c2.588-0.276,4.57-2.346,4.616-5.187c0.009-0.584-0.073-0.665-0.675-0.667c-1.607-0.003-3.216-0.001-4.823,0
		c-0.188,0-0.373,0.014-0.556,0.055c-2.061,0.463-3.404,1.696-3.997,3.73c-0.119,0.409-0.112,0.408-0.437,0.155
		c-0.825-0.639-1.73-1.086-2.796-1.095C5.912,9.966,4.305,9.976,2.696,9.977c-0.184,0-0.377-0.021-0.532,0.118v1.379
		c0.083,0.259,0.037,0.54,0.118,0.797c0.636,2.047,2.445,3.326,4.163,3.542c1.131,0.142,2.265,0.059,3.396,0.08
		c0.744,0.014,0.728,0.003,0.744,0.727c0.008,0.37-0.108,0.583-0.478,0.695c-0.444,0.133-0.819,0.41-1.167,0.713
		c-0.416,0.362-0.402,0.359-0.826-0.031c-0.833-0.767-1.83-1.091-2.937-0.884c-1.651,0.31-2.722,1.262-3.012,2.977v1.292
		c0.116,0.275,0.077,0.583,0.213,0.862c0.463,0.951,1.18,1.604,2.177,1.953c0.185,0.065,0.41,0.097,0.372,0.381
		c-0.106,0.768,0.058,1.479,0.436,2.146c0.118,0.208,0.089,0.32-0.176,0.315c-0.257-0.004-0.515,0-0.772,0
		c-1.201,0.005-1.978,0.61-2.249,1.751v2.412c0.112,0.557,0.362,1.037,0.875,1.311c0.39,0.206,0.504,0.491,0.481,0.908
		c-0.068,1.229,0.08,2.436,0.417,3.619c1.165,4.09,3.659,7.061,7.502,8.882c1.344,0.636,2.763,1.021,4.251,1.134h0.775
		c0.172-0.071,0.344-0.071,0.517,0h10.684c0.057-0.056,0.115-0.056,0.172,0h0.259c0.021-0.021,0.047-0.041,0.074-0.041
		c1.706-0.013,3.215-0.638,4.632-1.529c0.279-0.174,0.54-0.223,0.853-0.12c1.209,0.397,2.471,0.455,3.707,0.313
		c3.488-0.405,6.099-2.19,7.825-5.249c0.634-1.124,0.995-2.337,1.088-3.628V34.65C46.182,34.188,46.222,33.712,46.092,33.254z
		 M29.342,6.924c0.346-1.299,1.618-2.407,2.965-2.512c0.626-0.05,1.259-0.008,1.889-0.008V4.372c0.574,0,1.147,0.01,1.72-0.005
		c0.259-0.006,0.323,0.061,0.251,0.319c-0.355,1.278-1.607,2.362-2.946,2.483c-1.229,0.111-2.464,0.021-3.695,0.049
		C29.268,7.223,29.293,7.106,29.342,6.924z M19.589,17.76c0.579-1.942,1.643-3.555,3.25-4.796c1.41-1.089,3.331-0.997,4.658,0.2
		c0.194,0.175,0.321,0.356,0.274,0.628c-0.011,0.056-0.002,0.115-0.002,0.172c0,1.121,0,1.115,1.145,1.075
		c0.217-0.007,0.313-0.054,0.296-0.288c-0.019-0.257,0.026-0.521-0.011-0.774c-0.064-0.442,0.135-0.715,0.469-0.971
		c1.309-1.006,3.083-1.052,4.403-0.091c3.784,2.751,4.809,8.306,2.229,12.28c-0.515-1.238-1.186-2.312-2.054-3.266
		c-0.22-0.242-0.346-0.264-0.554-0.006c-0.207,0.255-0.593,0.451-0.646,0.721c-0.048,0.252,0.361,0.471,0.554,0.717
		c0.526,0.669,0.956,1.392,1.296,2.17c0.09,0.204,0.089,0.295-0.17,0.331c-1.177,0.163-2.274,0.567-3.304,1.153
		c-0.172,0.097-0.34,0.129-0.53,0.127c-2.742,0-5.484-0.002-8.227,0.004c-0.229,0-0.402-0.051-0.573-0.217
		c-1.011-0.987-1.776-2.131-2.277-3.455c-0.086-0.226-0.073-0.376,0.083-0.578c1.081-1.393,1.015-3.212-0.166-4.53
		C19.552,18.168,19.518,18.001,19.589,17.76z M18.104,35.677c-0.222,0-0.263-0.075-0.239-0.276c0.21-1.807,0.846-3.439,1.984-4.867
		c0.088-0.109,0.148-0.286,0.35-0.086c1.722,1.705,3.451,3.402,5.177,5.104c-0.03,0.04-0.061,0.081-0.091,0.122
		C22.891,35.673,20.498,35.669,18.104,35.677z M25.235,37.14c-0.001,0.134-0.12,0.185-0.195,0.258
		c-1.571,1.574-3.153,3.141-4.713,4.724c-0.251,0.255-0.351,0.195-0.536-0.045c-1.073-1.398-1.705-2.971-1.911-4.72
		c-0.025-0.197,0-0.283,0.228-0.283c2.353,0.013,4.706,0.015,7.06,0.021C25.189,37.095,25.212,37.123,25.235,37.14z M20.227,27.133
		h-3.115c0.363-0.578,0.64-1.149,0.681-1.799c0.013-0.198,0.054-0.413,0-0.596c-0.121-0.419,0.03-0.576,0.436-0.649
		c0.216-0.04,0.3-0.019,0.377,0.181c0.378,0.98,0.925,1.864,1.578,2.682C20.217,26.995,20.267,27.032,20.227,27.133z M17.096,18.605
		c1.185-0.003,2.132,0.936,2.135,2.118c0.003,1.182-0.937,2.13-2.118,2.133c-1.187,0.003-2.13-0.932-2.134-2.117
		C14.975,19.551,15.91,18.61,17.096,18.605z M14.256,22.847c0.475,0.592,1.024,1.014,1.715,1.23c0.186,0.057,0.273,0.171,0.325,0.35
		c0.23,0.807,0.038,1.516-0.548,2.089c-0.612,0.597-1.357,0.779-2.178,0.491c-0.796-0.276-1.272-0.851-1.412-1.683
		c-0.054-0.325-0.162-0.684-0.075-0.976c0.098-0.329,0.55-0.249,0.828-0.395C13.425,23.682,13.872,23.336,14.256,22.847z
		 M12.283,11.137c0.407-1.346,1.658-2.359,3.097-2.491c0.171-0.015,0.344-0.012,0.517-0.012c1.074,0,2.15,0,3.226,0
		c-0.122,1.24-1.305,2.458-2.645,2.755c-0.683,0.153-1.373,0.07-2.059,0.085c-0.631,0.013-1.263-0.012-1.894,0.01
		C12.213,11.495,12.208,11.382,12.283,11.137z M6.348,14.221c-1.355-0.245-2.496-1.466-2.652-2.752
		c1.375,0.057,2.751-0.114,4.114,0.091c1.398,0.21,2.597,1.43,2.784,2.774C9.175,14.261,7.751,14.474,6.348,14.221z M11.405,18.605
		c1.185-0.003,2.133,0.938,2.136,2.119c0.004,1.181-0.94,2.13-2.12,2.133c-1.187,0.003-2.13-0.933-2.134-2.117
		C9.282,19.552,10.218,18.61,11.405,18.605z M8.589,22.878c0.448,0.561,0.999,0.984,1.69,1.197c0.21,0.064,0.28,0.205,0.336,0.393
		c0.242,0.813-0.071,1.724-0.782,2.246c-0.75,0.55-1.729,0.563-2.488,0.032c-0.72-0.507-1.065-1.423-0.846-2.229
		c0.064-0.236,0.172-0.396,0.431-0.466c0.333-0.091,0.636-0.263,0.901-0.482C8.094,23.352,8.336,23.11,8.589,22.878z M3.592,20.713
		c0.012-1.187,0.958-2.115,2.147-2.108c1.18,0.007,2.119,0.961,2.113,2.144c-0.006,1.176-0.963,2.114-2.148,2.108
		C4.523,22.851,3.582,21.895,3.592,20.713z M3.587,30.361c0-0.344-0.009-0.688,0.004-1.033c0.021-0.507,0.272-0.75,0.782-0.777
		c0.057-0.005,0.115-0.003,0.172-0.003H19.73c-0.741,0.746-1.368,1.457-1.805,2.294c-0.229,0.438-0.497,0.572-0.993,0.569
		c-4.104-0.025-8.207-0.015-12.311-0.015C3.779,31.396,3.589,31.205,3.587,30.361z M21.447,45.626
		c-1.665-0.004-3.332,0.041-4.994-0.03c-5.134-0.212-9.622-3.836-11.008-8.838c-0.32-1.156-0.447-2.333-0.447-3.531
		C5,32.913,5.063,32.822,5.394,32.825c2.683,0.015,5.368,0.008,8.052,0.008h3.494c-1.396,5.355,0.099,9.607,4.67,12.771
		C21.548,45.613,21.497,45.626,21.447,45.626z M26.36,45.244c0,0.279-0.061,0.371-0.356,0.333c-1.713-0.23-3.258-0.851-4.627-1.912
		c-0.247-0.191-0.322-0.299-0.052-0.564c1.559-1.525,3.093-3.074,4.639-4.612c0.105-0.103,0.183-0.253,0.346-0.287
		c0.085,0.058,0.047,0.138,0.047,0.199C26.358,40.682,26.351,42.963,26.36,45.244z M26.414,34.539
		c-0.568-0.563-1.132-1.124-1.68-1.667h2.015C26.611,33.431,26.481,33.995,26.414,34.539z M27.419,31.231
		c-0.084,0.172-0.208,0.165-0.354,0.165c-1.22,0-2.438,0-3.66,0c-0.127,0-0.25,0.011-0.358-0.097
		c-0.894-0.885-1.79-1.768-2.765-2.728h9.051C28.529,29.396,27.894,30.258,27.419,31.231z M30.145,45.1
		c-0.665,0.236-1.35,0.372-2.044,0.479c-0.253,0.038-0.347-0.009-0.346-0.299c0.013-2.364,0.008-4.729,0.008-7.107
		c1.767,1.751,3.514,3.481,5.287,5.239C32.203,44.159,31.227,44.713,30.145,45.1z M37.757,44.084
		c-1.053,0.202-2.108,0.17-3.19-0.075c0.518-0.621,0.519-0.621-0.039-1.182c-2.157-2.167-4.313-4.334-6.474-6.497
		c-0.171-0.172-0.282-0.339-0.283-0.595c-0.015-4.412,3.26-7.922,7.283-8.508c0.299-0.045,0.395,0.041,0.435,0.317
		c0.102,0.7,0.129,1.4,0.104,2.105c-0.009,0.251,0.049,0.341,0.326,0.344c1.145,0.011,1.152,0.021,1.105-1.108
		c-0.021-0.485-0.08-0.971-0.137-1.454c-0.023-0.204,0.009-0.273,0.24-0.258c3.672,0.253,7.048,3.381,7.598,7.049
		C45.441,39.004,42.504,43.165,37.757,44.084z M42.679,35.677c-0.205,0.123-0.663-0.283-0.703,0.37
		c-0.178,2.839-2.366,5.058-5.221,5.292c-0.384,0.032-0.463,0.134-0.455,0.494c0.023,1.059,0.007,1.062,1.06,0.879
		c3.292-0.574,5.553-2.917,6.019-6.24C43.49,35.677,43.49,35.677,42.679,35.677z M40.044,30.657
		c-0.066-0.075-0.144-0.144-0.196-0.228c-0.154-0.249-0.288-0.242-0.526-0.058c-1.606,1.241-3.785,1.359-5.529,0.344
		c-0.274-0.159-0.517-0.561-0.795-0.462c-0.284,0.103-0.456,0.494-0.704,0.73c-0.209,0.199-0.151,0.305,0.047,0.459
		c1.161,0.902,2.478,1.345,3.762,1.386c1.441,0.007,2.777-0.401,3.816-1.117C40.57,31.264,40.57,31.264,40.044,30.657z
		 M40.044,30.657c-0.066-0.075-0.144-0.144-0.196-0.228c-0.154-0.249-0.288-0.242-0.526-0.058c-1.606,1.241-3.785,1.359-5.529,0.344
		c-0.274-0.159-0.517-0.561-0.795-0.462c-0.284,0.103-0.456,0.494-0.704,0.73c-0.209,0.199-0.151,0.305,0.047,0.459
		c1.161,0.902,2.478,1.345,3.762,1.386c1.441,0.007,2.777-0.401,3.816-1.117C40.57,31.264,40.57,31.264,40.044,30.657z
		 M42.679,35.677c-0.205,0.123-0.663-0.283-0.703,0.37c-0.178,2.839-2.366,5.058-5.221,5.292c-0.384,0.032-0.463,0.134-0.455,0.494
		c0.023,1.059,0.007,1.062,1.06,0.879c3.292-0.574,5.553-2.917,6.019-6.24C43.49,35.677,43.49,35.677,42.679,35.677z M42.679,35.677
		c-0.205,0.123-0.663-0.283-0.703,0.37c-0.178,2.839-2.366,5.058-5.221,5.292c-0.384,0.032-0.463,0.134-0.455,0.494
		c0.023,1.059,0.007,1.062,1.06,0.879c3.292-0.574,5.553-2.917,6.019-6.24C43.49,35.677,43.49,35.677,42.679,35.677z M40.044,30.657
		c-0.066-0.075-0.144-0.144-0.196-0.228c-0.154-0.249-0.288-0.242-0.526-0.058c-1.606,1.241-3.785,1.359-5.529,0.344
		c-0.274-0.159-0.517-0.561-0.795-0.462c-0.284,0.103-0.456,0.494-0.704,0.73c-0.209,0.199-0.151,0.305,0.047,0.459
		c1.161,0.902,2.478,1.345,3.762,1.386c1.441,0.007,2.777-0.401,3.816-1.117C40.57,31.264,40.57,31.264,40.044,30.657z
		 M40.044,30.657c-0.066-0.075-0.144-0.144-0.196-0.228c-0.154-0.249-0.288-0.242-0.526-0.058c-1.606,1.241-3.785,1.359-5.529,0.344
		c-0.274-0.159-0.517-0.561-0.795-0.462c-0.284,0.103-0.456,0.494-0.704,0.73c-0.209,0.199-0.151,0.305,0.047,0.459
		c1.161,0.902,2.478,1.345,3.762,1.386c1.441,0.007,2.777-0.401,3.816-1.117C40.57,31.264,40.57,31.264,40.044,30.657z
		 M42.679,35.677c-0.205,0.123-0.663-0.283-0.703,0.37c-0.178,2.839-2.366,5.058-5.221,5.292c-0.384,0.032-0.463,0.134-0.455,0.494
		c0.023,1.059,0.007,1.062,1.06,0.879c3.292-0.574,5.553-2.917,6.019-6.24C43.49,35.677,43.49,35.677,42.679,35.677z M42.679,35.677
		c-0.205,0.123-0.663-0.283-0.703,0.37c-0.178,2.839-2.366,5.058-5.221,5.292c-0.384,0.032-0.463,0.134-0.455,0.494
		c0.023,1.059,0.007,1.062,1.06,0.879c3.292-0.574,5.553-2.917,6.019-6.24C43.49,35.677,43.49,35.677,42.679,35.677z M40.044,30.657
		c-0.066-0.075-0.144-0.144-0.196-0.228c-0.154-0.249-0.288-0.242-0.526-0.058c-1.606,1.241-3.785,1.359-5.529,0.344
		c-0.274-0.159-0.517-0.561-0.795-0.462c-0.284,0.103-0.456,0.494-0.704,0.73c-0.209,0.199-0.151,0.305,0.047,0.459
		c1.161,0.902,2.478,1.345,3.762,1.386c1.441,0.007,2.777-0.401,3.816-1.117C40.57,31.264,40.57,31.264,40.044,30.657z
		 M40.044,30.657c-0.066-0.075-0.144-0.144-0.196-0.228c-0.154-0.249-0.288-0.242-0.526-0.058c-1.606,1.241-3.785,1.359-5.529,0.344
		c-0.274-0.159-0.517-0.561-0.795-0.462c-0.284,0.103-0.456,0.494-0.704,0.73c-0.209,0.199-0.151,0.305,0.047,0.459
		c1.161,0.902,2.478,1.345,3.762,1.386c1.441,0.007,2.777-0.401,3.816-1.117C40.57,31.264,40.57,31.264,40.044,30.657z
		 M42.679,35.677c-0.205,0.123-0.663-0.283-0.703,0.37c-0.178,2.839-2.366,5.058-5.221,5.292c-0.384,0.032-0.463,0.134-0.455,0.494
		c0.023,1.059,0.007,1.062,1.06,0.879c3.292-0.574,5.553-2.917,6.019-6.24C43.49,35.677,43.49,35.677,42.679,35.677z M42.679,35.677
		c-0.205,0.123-0.663-0.283-0.703,0.37c-0.178,2.839-2.366,5.058-5.221,5.292c-0.384,0.032-0.463,0.134-0.455,0.494
		c0.023,1.059,0.007,1.062,1.06,0.879c3.292-0.574,5.553-2.917,6.019-6.24C43.49,35.677,43.49,35.677,42.679,35.677z M40.044,30.657
		c-0.066-0.075-0.144-0.144-0.196-0.228c-0.154-0.249-0.288-0.242-0.526-0.058c-1.606,1.241-3.785,1.359-5.529,0.344
		c-0.274-0.159-0.517-0.561-0.795-0.462c-0.284,0.103-0.456,0.494-0.704,0.73c-0.209,0.199-0.151,0.305,0.047,0.459
		c1.161,0.902,2.478,1.345,3.762,1.386c1.441,0.007,2.777-0.401,3.816-1.117C40.57,31.264,40.57,31.264,40.044,30.657z
		 M40.044,30.657c-0.066-0.075-0.144-0.144-0.196-0.228c-0.154-0.249-0.288-0.242-0.526-0.058c-1.606,1.241-3.785,1.359-5.529,0.344
		c-0.274-0.159-0.517-0.561-0.795-0.462c-0.284,0.103-0.456,0.494-0.704,0.73c-0.209,0.199-0.151,0.305,0.047,0.459
		c1.161,0.902,2.478,1.345,3.762,1.386c1.441,0.007,2.777-0.401,3.816-1.117C40.57,31.264,40.57,31.264,40.044,30.657z
		 M42.679,35.677c-0.205,0.123-0.663-0.283-0.703,0.37c-0.178,2.839-2.366,5.058-5.221,5.292c-0.384,0.032-0.463,0.134-0.455,0.494
		c0.023,1.059,0.007,1.062,1.06,0.879c3.292-0.574,5.553-2.917,6.019-6.24C43.49,35.677,43.49,35.677,42.679,35.677z M42.679,35.677
		c-0.205,0.123-0.663-0.283-0.703,0.37c-0.178,2.839-2.366,5.058-5.221,5.292c-0.384,0.032-0.463,0.134-0.455,0.494
		c0.023,1.059,0.007,1.062,1.06,0.879c3.292-0.574,5.553-2.917,6.019-6.24C43.49,35.677,43.49,35.677,42.679,35.677z M40.044,30.657
		c-0.066-0.075-0.144-0.144-0.196-0.228c-0.154-0.249-0.288-0.242-0.526-0.058c-1.606,1.241-3.785,1.359-5.529,0.344
		c-0.274-0.159-0.517-0.561-0.795-0.462c-0.284,0.103-0.456,0.494-0.704,0.73c-0.209,0.199-0.151,0.305,0.047,0.459
		c1.161,0.902,2.478,1.345,3.762,1.386c1.441,0.007,2.777-0.401,3.816-1.117C40.57,31.264,40.57,31.264,40.044,30.657z
		 M40.044,30.657c-0.066-0.075-0.144-0.144-0.196-0.228c-0.154-0.249-0.288-0.242-0.526-0.058c-1.606,1.241-3.785,1.359-5.529,0.344
		c-0.274-0.159-0.517-0.561-0.795-0.462c-0.284,0.103-0.456,0.494-0.704,0.73c-0.209,0.199-0.151,0.305,0.047,0.459
		c1.161,0.902,2.478,1.345,3.762,1.386c1.441,0.007,2.777-0.401,3.816-1.117C40.57,31.264,40.57,31.264,40.044,30.657z
		 M42.679,35.677c-0.205,0.123-0.663-0.283-0.703,0.37c-0.178,2.839-2.366,5.058-5.221,5.292c-0.384,0.032-0.463,0.134-0.455,0.494
		c0.023,1.059,0.007,1.062,1.06,0.879c3.292-0.574,5.553-2.917,6.019-6.24C43.49,35.677,43.49,35.677,42.679,35.677z M42.679,35.677
		c-0.205,0.123-0.663-0.283-0.703,0.37c-0.178,2.839-2.366,5.058-5.221,5.292c-0.384,0.032-0.463,0.134-0.455,0.494
		c0.023,1.059,0.007,1.062,1.06,0.879c3.292-0.574,5.553-2.917,6.019-6.24C43.49,35.677,43.49,35.677,42.679,35.677z M40.044,30.657
		c-0.066-0.075-0.144-0.144-0.196-0.228c-0.154-0.249-0.288-0.242-0.526-0.058c-1.606,1.241-3.785,1.359-5.529,0.344
		c-0.274-0.159-0.517-0.561-0.795-0.462c-0.284,0.103-0.456,0.494-0.704,0.73c-0.209,0.199-0.151,0.305,0.047,0.459
		c1.161,0.902,2.478,1.345,3.762,1.386c1.441,0.007,2.777-0.401,3.816-1.117C40.57,31.264,40.57,31.264,40.044,30.657z
		 M40.044,30.657c-0.066-0.075-0.144-0.144-0.196-0.228c-0.154-0.249-0.288-0.242-0.526-0.058c-1.606,1.241-3.785,1.359-5.529,0.344
		c-0.274-0.159-0.517-0.561-0.795-0.462c-0.284,0.103-0.456,0.494-0.704,0.73c-0.209,0.199-0.151,0.305,0.047,0.459
		c1.161,0.902,2.478,1.345,3.762,1.386c1.441,0.007,2.777-0.401,3.816-1.117C40.57,31.264,40.57,31.264,40.044,30.657z
		 M42.679,35.677c-0.205,0.123-0.663-0.283-0.703,0.37c-0.178,2.839-2.366,5.058-5.221,5.292c-0.384,0.032-0.463,0.134-0.455,0.494
		c0.023,1.059,0.007,1.062,1.06,0.879c3.292-0.574,5.553-2.917,6.019-6.24C43.49,35.677,43.49,35.677,42.679,35.677z M42.679,35.677
		c-0.205,0.123-0.663-0.283-0.703,0.37c-0.178,2.839-2.366,5.058-5.221,5.292c-0.384,0.032-0.463,0.134-0.455,0.494
		c0.023,1.059,0.007,1.062,1.06,0.879c3.292-0.574,5.553-2.917,6.019-6.24C43.49,35.677,43.49,35.677,42.679,35.677z M40.044,30.657
		c-0.066-0.075-0.144-0.144-0.196-0.228c-0.154-0.249-0.288-0.242-0.526-0.058c-1.606,1.241-3.785,1.359-5.529,0.344
		c-0.274-0.159-0.517-0.561-0.795-0.462c-0.284,0.103-0.456,0.494-0.704,0.73c-0.209,0.199-0.151,0.305,0.047,0.459
		c1.161,0.902,2.478,1.345,3.762,1.386c1.441,0.007,2.777-0.401,3.816-1.117C40.57,31.264,40.57,31.264,40.044,30.657z
		 M40.044,30.657c-0.066-0.075-0.144-0.144-0.196-0.228c-0.154-0.249-0.288-0.242-0.526-0.058c-1.606,1.241-3.785,1.359-5.529,0.344
		c-0.274-0.159-0.517-0.561-0.795-0.462c-0.284,0.103-0.456,0.494-0.704,0.73c-0.209,0.199-0.151,0.305,0.047,0.459
		c1.161,0.902,2.478,1.345,3.762,1.386c1.441,0.007,2.777-0.401,3.816-1.117C40.57,31.264,40.57,31.264,40.044,30.657z
		 M42.679,35.677c-0.205,0.123-0.663-0.283-0.703,0.37c-0.178,2.839-2.366,5.058-5.221,5.292c-0.384,0.032-0.463,0.134-0.455,0.494
		c0.023,1.059,0.007,1.062,1.06,0.879c3.292-0.574,5.553-2.917,6.019-6.24C43.49,35.677,43.49,35.677,42.679,35.677z M42.679,35.677
		c-0.205,0.123-0.663-0.283-0.703,0.37c-0.178,2.839-2.366,5.058-5.221,5.292c-0.384,0.032-0.463,0.134-0.455,0.494
		c0.023,1.059,0.007,1.062,1.06,0.879c3.292-0.574,5.553-2.917,6.019-6.24C43.49,35.677,43.49,35.677,42.679,35.677z M40.044,30.657
		c-0.066-0.075-0.144-0.144-0.196-0.228c-0.154-0.249-0.288-0.242-0.526-0.058c-1.606,1.241-3.785,1.359-5.529,0.344
		c-0.274-0.159-0.517-0.561-0.795-0.462c-0.284,0.103-0.456,0.494-0.704,0.73c-0.209,0.199-0.151,0.305,0.047,0.459
		c1.161,0.902,2.478,1.345,3.762,1.386c1.441,0.007,2.777-0.401,3.816-1.117C40.57,31.264,40.57,31.264,40.044,30.657z
		 M40.044,30.657c-0.066-0.075-0.144-0.144-0.196-0.228c-0.154-0.249-0.288-0.242-0.526-0.058c-1.606,1.241-3.785,1.359-5.529,0.344
		c-0.274-0.159-0.517-0.561-0.795-0.462c-0.284,0.103-0.456,0.494-0.704,0.73c-0.209,0.199-0.151,0.305,0.047,0.459
		c1.161,0.902,2.478,1.345,3.762,1.386c1.441,0.007,2.777-0.401,3.816-1.117C40.57,31.264,40.57,31.264,40.044,30.657z
		 M42.679,35.677c-0.205,0.123-0.663-0.283-0.703,0.37c-0.178,2.839-2.366,5.058-5.221,5.292c-0.384,0.032-0.463,0.134-0.455,0.494
		c0.023,1.059,0.007,1.062,1.06,0.879c3.292-0.574,5.553-2.917,6.019-6.24C43.49,35.677,43.49,35.677,42.679,35.677z M42.679,35.677
		c-0.205,0.123-0.663-0.283-0.703,0.37c-0.178,2.839-2.366,5.058-5.221,5.292c-0.384,0.032-0.463,0.134-0.455,0.494
		c0.023,1.059,0.007,1.062,1.06,0.879c3.292-0.574,5.553-2.917,6.019-6.24C43.49,35.677,43.49,35.677,42.679,35.677z M40.044,30.657
		c-0.066-0.075-0.144-0.144-0.196-0.228c-0.154-0.249-0.288-0.242-0.526-0.058c-1.606,1.241-3.785,1.359-5.529,0.344
		c-0.274-0.159-0.517-0.561-0.795-0.462c-0.284,0.103-0.456,0.494-0.704,0.73c-0.209,0.199-0.151,0.305,0.047,0.459
		c1.161,0.902,2.478,1.345,3.762,1.386c1.441,0.007,2.777-0.401,3.816-1.117C40.57,31.264,40.57,31.264,40.044,30.657z"/>
	<path fill-rule="evenodd" clip-rule="evenodd" fill="#1A1A1A" d="M16.466,47.057c0.172-0.138,0.345-0.127,0.517,0
		C16.811,47.057,16.638,47.057,16.466,47.057z"/>
	<path fill-rule="evenodd" clip-rule="evenodd" fill="#525252" d="M32.042,3.016c0.003-0.024,0.008-0.048,0.018-0.071
		c0.144,0,0.287,0,0.431,0C32.355,3.06,32.2,3.042,32.042,3.016z"/>
	<path fill-rule="evenodd" clip-rule="evenodd" fill="#474747" d="M27.666,47.057c0.057-0.09,0.114-0.109,0.172,0
		C27.78,47.057,27.723,47.057,27.666,47.057z"/>
	<path fill-rule="evenodd" clip-rule="evenodd" fill="#FEFEFE" d="M35.535,20.723c-0.029-0.003-0.06-0.011-0.087-0.007
		c-0.466,0.071-0.557-0.125-0.571-0.585c-0.069-2.103-0.944-3.809-2.677-5.038c-0.134-0.095-0.15-0.187-0.149-0.317
		c0.002-0.272,0.023-0.549-0.005-0.818c-0.038-0.356,0.136-0.371,0.401-0.298c0.295,0.08,0.557,0.221,0.796,0.41
		c1.915,1.507,2.928,3.48,3.062,5.909C36.324,20.79,36.324,20.79,35.535,20.723z"/>
	<path fill-rule="evenodd" clip-rule="evenodd" fill="#FEFEFE" d="M39.918,31.712c-1.039,0.716-2.375,1.124-3.816,1.117
		c-1.284-0.041-2.601-0.483-3.762-1.386c-0.198-0.154-0.256-0.26-0.047-0.459c0.248-0.236,0.42-0.628,0.704-0.73
		c0.278-0.099,0.521,0.303,0.795,0.462c1.744,1.016,3.923,0.897,5.529-0.344c0.238-0.185,0.372-0.191,0.526,0.058
		c0.053,0.084,0.13,0.152,0.196,0.228C40.57,31.264,40.57,31.264,39.918,31.712z"/>
	<path fill-rule="evenodd" clip-rule="evenodd" fill="#FEFEFE" d="M43.378,36.472c-0.466,3.323-2.727,5.666-6.019,6.24
		c-1.053,0.183-1.036,0.18-1.06-0.879c-0.008-0.36,0.071-0.462,0.455-0.494c2.854-0.234,5.043-2.453,5.221-5.292
		c0.04-0.653,0.498-0.247,0.703-0.37C43.49,35.677,43.49,35.677,43.378,36.472z"/>
	<path fill-rule="evenodd" clip-rule="evenodd" d="M35.535,20.723c-0.029-0.003-0.06-0.011-0.087-0.007
		c-0.466,0.071-0.557-0.125-0.571-0.585c-0.069-2.103-0.944-3.809-2.677-5.038c-0.134-0.095-0.15-0.187-0.149-0.317
		c0.002-0.272,0.023-0.549-0.005-0.818c-0.038-0.356,0.136-0.371,0.401-0.298c0.295,0.08,0.557,0.221,0.796,0.41
		c1.915,1.507,2.928,3.48,3.062,5.909C36.324,20.79,36.324,20.79,35.535,20.723z"/>
	<path fill-rule="evenodd" clip-rule="evenodd" d="M43.378,36.472c-0.466,3.323-2.727,5.666-6.019,6.24
		c-1.053,0.183-1.036,0.18-1.06-0.879c-0.008-0.36,0.071-0.462,0.455-0.494c2.854-0.234,5.043-2.453,5.221-5.292
		c0.04-0.653,0.498-0.247,0.703-0.37C43.49,35.677,43.49,35.677,43.378,36.472z"/>
	<path fill-rule="evenodd" clip-rule="evenodd" d="M39.918,31.712c-1.039,0.716-2.375,1.124-3.816,1.117
		c-1.284-0.041-2.601-0.483-3.762-1.386c-0.198-0.154-0.256-0.26-0.047-0.459c0.248-0.236,0.42-0.628,0.704-0.73
		c0.278-0.099,0.521,0.303,0.795,0.462c1.744,1.016,3.923,0.897,5.529-0.344c0.238-0.185,0.372-0.191,0.526,0.058
		c0.053,0.084,0.13,0.152,0.196,0.228C40.57,31.264,40.57,31.264,39.918,31.712z"/>
</g>
</svg>
