<?xml version="1.0" encoding="utf-8"?>
<!-- Generator: Adobe Illustrator 16.0.0, SVG Export Plug-In . SVG Version: 6.00 Build 0)  -->
<!DOCTYPE svg PUBLIC "-//W3C//DTD SVG 1.1//EN" "http://www.w3.org/Graphics/SVG/1.1/DTD/svg11.dtd">
<svg version="1.1" id="Layer_1" xmlns="http://www.w3.org/2000/svg" xmlns:xlink="http://www.w3.org/1999/xlink" x="0px" y="0px"
	 width="48px" height="48px" viewBox="0 0 48 48" enable-background="new 0 0 48 48" xml:space="preserve">
<g>
	<path fill-rule="evenodd" clip-rule="evenodd" d="M40.902,39.505c-0.927-0.196-1.857-0.42-2.645-0.993
		c-0.663-0.484-0.67-1.146-0.041-1.675c0.209-0.176,0.452-0.284,0.702-0.377c0.559-0.21,1.147-0.294,1.73-0.408
		c0.956-0.19,1.926-0.329,2.788-0.85c1.21-0.729,1.742-2.824,0.065-3.905c-0.592-0.382-1.225-0.661-1.896-0.858
		c-2.585-0.76-5.251-0.942-7.922-1.074c-0.549-0.025-0.546-0.015-0.367-0.511c1.118-3.094,1.332-6.25,0.596-9.459
		c-0.754-3.289-2.379-6.083-4.821-8.402c-0.224-0.21-0.271-0.333-0.004-0.53c0.226-0.167,0.412-0.386,0.626-0.571
		c0.142-0.121,0.198-0.196,0.039-0.379c-0.705-0.817-0.697-0.825-1.487-0.1c-0.064,0.061-0.141,0.114-0.193,0.183
		c-0.191,0.25-0.355,0.238-0.615,0.046c-2.329-1.718-4.939-2.763-7.811-3.08c-4.63-0.512-8.787,0.694-12.445,3.589
		c-0.628,0.498-0.627,0.499-1.195-0.089c-0.705-0.733-0.696-0.721-1.426-0.025c-0.216,0.206-0.175,0.312,0.011,0.484
		c0.261,0.243,0.481,0.529,0.751,0.761c0.256,0.222,0.248,0.366,0.015,0.621c-2.181,2.396-3.558,5.19-4.119,8.389
		C1.173,20.67,1.238,21.085,1,21.43v0.357c0.053,0.047,0.043,0.113,0.046,0.174v0.03c-0.001,0.056,0,0.111-0.046,0.151v1.783
		c0.055,0.06,0.055,0.119,0,0.179v0.535c0.114,0.565,0.081,1.146,0.194,1.713c0.411,2.097,1.208,4.037,2.357,5.831
		c0.219,0.343,0.197,0.589-0.097,0.852c-0.21,0.188-0.408,0.393-0.595,0.604c-0.184,0.209-0.164,0.422,0.037,0.585
		c0.292,0.237,0.438,0.718,0.95,0.604c0.084-0.02,0.141-0.107,0.2-0.173c0.143-0.153,0.299-0.29,0.434-0.447
		c0.217-0.256,0.413-0.244,0.621,0.007c0.408,0.493,0.875,0.924,1.345,1.357c1.145,1.06,2.426,1.925,3.819,2.601
		c3.084,1.495,6.333,2.056,9.745,1.562c3.423-0.495,6.411-1.907,8.962-4.244c0.383-0.352,0.479-0.354,0.885,0.03
		c0.713,0.673,0.713,0.673,1.375-0.063c0.29-0.325,0.294-0.441,0.01-0.757c-0.149-0.166-0.304-0.327-0.474-0.472
		c-0.231-0.196-0.229-0.371-0.035-0.603c0.636-0.769,1.197-1.59,1.659-2.477c0.13-0.252,0.313-0.347,0.607-0.342
		c1.099,0.011,2.192,0.094,3.287,0.185c1.525,0.129,3.042,0.33,4.521,0.738c0.629,0.174,1.265,0.353,1.814,0.724
		c0.591,0.4,0.612,1.064,0.065,1.485c-0.18,0.14-0.389,0.217-0.602,0.286c-0.683,0.213-1.382,0.347-2.085,0.465
		c-0.679,0.114-1.339,0.286-1.966,0.568c-1.017,0.458-1.66,1.233-1.724,2.354c-0.059,1.012,0.504,1.735,1.353,2.248
		c1.127,0.68,2.383,0.97,3.658,1.21c1.362,0.255,2.739,0.337,4.114,0.436c0.402,0.029,0.83,0.125,1.221-0.103v-1.338
		C44.72,40.061,42.797,39.907,40.902,39.505z M11.455,34.926c-5.034-4.159-6.875-11.031-4.592-17.153
		c0.124-0.329,0.04-0.419-0.251-0.53c-0.886-0.339-0.883-0.35-1.182,0.555c-2.463,7.417,0.433,15.399,7.081,19.519
		c0.087,0.056,0.171,0.117,0.256,0.176c-0.035,0.03-0.07,0.06-0.105,0.09c-2.362-0.775-4.386-2.095-6.078-3.9
		c-3.278-3.497-4.747-7.673-4.115-12.415C3.271,15.25,6.637,11.1,12.242,8.769c0.162-0.068,0.328-0.123,0.494-0.179
		c0.025-0.008,0.058,0.005,0.101,0.009c-0.065,0.209-0.264,0.258-0.412,0.351c-2.53,1.596-4.503,3.706-5.926,6.337
		c-0.16,0.293-0.145,0.403,0.169,0.549c0.829,0.387,0.814,0.399,1.263-0.364c2.177-3.696,5.347-6.091,9.482-7.218
		c0.041-0.011,0.085-0.006,0.156-0.012c-0.082,0.158-0.232,0.183-0.346,0.25c-4.917,2.851-7.816,7.06-8.55,12.72
		c-0.031,0.238-0.084,0.34-0.34,0.328c-0.401-0.02-0.805,0.015-1.205-0.012c-0.287-0.019-0.339,0.088-0.34,0.353
		c-0.004,0.986-0.013,0.986,0.984,0.986c0.789,0,0.767,0.001,0.803,0.782c0.283,5.903,2.969,10.421,7.895,13.64
		c0.248,0.161,0.504,0.309,0.758,0.462c-0.063,0.03-0.125,0.062-0.188,0.092C14.954,37.301,13.105,36.293,11.455,34.926z
		 M26.67,25.909c0.855,0.548,0.842,0.56,1.357-0.329c0.769-1.327,1.325-2.739,1.723-4.272c0.41,0.44,0.704,0.915,0.998,1.388
		c0.045,0.074,0.025,0.202,0.01,0.301c-1.014,6.142-6.174,11.322-12.305,12.349c-0.452,0.077-0.919,0.093-1.364,0.195
		c-0.566,0.131-1-0.039-1.405-0.425c-0.403-0.385-0.839-0.734-1.347-1.174c1.331-0.077,2.525-0.261,3.691-0.586
		c1.595-0.447,3.097-1.105,4.481-2.017c0.257-0.17,0.373-0.135,0.553,0.101c0.552,0.724,0.551,0.696,1.282,0.141
		c0.291-0.222,0.263-0.359,0.053-0.607c-0.499-0.591-0.485-0.598,0.093-1.1c0.719-0.623,1.377-1.307,1.992-2.035
		c0.164-0.193,0.22-0.313-0.039-0.475c-0.275-0.171-0.52-0.533-0.783-0.539c-0.203-0.004-0.414,0.416-0.623,0.645
		c-2.11,2.323-4.668,3.908-7.717,4.69c-0.243,0.063-0.375,0.041-0.514-0.17c-0.395-0.593-0.788-1.185-1.116-1.854
		c5.801-1.834,9.644-5.613,11.554-11.382c0.468,0.33,0.858,0.732,1.271,1.109c0.15,0.136,0.125,0.277,0.091,0.443
		c-0.37,1.819-1.036,3.521-2.026,5.092C26.437,25.623,26.401,25.738,26.67,25.909z M14.583,27.197
		c0.077-0.452,0.758-0.461,1.174-0.657c1.611-0.757,3.078-1.722,4.383-2.934c0.195-0.182,0.358-0.233,0.625-0.147
		c0.58,0.184,1.153,0.375,1.716,0.607c0.182,0.075,0.244,0.123,0.084,0.297c-1.988,2.159-4.392,3.642-7.211,4.452
		c-0.043,0.012-0.088,0.019-0.143,0.028c-0.081,0.026-0.126-0.027-0.162-0.097c-0.019-0.04-0.036-0.083-0.049-0.124
		C14.842,28.146,14.507,27.636,14.583,27.197z M14.215,25.732c-0.166-0.826-0.209-1.608-0.226-2.393
		c-0.005-0.18,0.043-0.269,0.235-0.295c1.49-0.205,2.981-0.251,4.534,0.001C17.384,24.224,15.891,25.091,14.215,25.732z
		 M25.971,18.267c-0.2,0.524-0.379,1.059-0.551,1.594c-0.09,0.275-0.207,0.277-0.441,0.14c-2.412-1.388-5.019-2.104-7.797-2.186
		c-0.739-0.022-1.482-0.004-2.249-0.004c0.25-0.712,0.578-1.405,0.942-2.084c0.097-0.18,0.216-0.247,0.414-0.263
		c3.386-0.266,6.544,0.432,9.454,2.208C26.006,17.833,26.082,17.977,25.971,18.267z M16.598,19.133
		c2.825,0.026,5.362,0.68,7.726,2.013c0.336,0.188,0.364,0.333,0.15,0.625c-0.234,0.321-0.447,0.664-0.642,1.013
		c-0.157,0.281-0.32,0.295-0.604,0.166c-2.254-1.013-4.627-1.453-7.092-1.402c-0.563,0.012-1.125,0.075-1.683,0.139
		c-0.285,0.034-0.428,0.034-0.37-0.338c0.089-0.586,0.192-1.17,0.302-1.751c0.043-0.226,0.149-0.301,0.378-0.33
		C15.412,19.183,16.064,19.164,16.598,19.133z M14.156,16.175c-1.117,2.463-1.607,5.046-1.484,7.746
		c0.139,2.956,1.009,5.675,2.596,8.167c0.077,0.123,0.196,0.224,0.208,0.401c-0.694,0.126-1.392,0.106-2.087,0.128
		c-0.172,0.003-0.264-0.086-0.36-0.213c-1.696-2.235-2.724-4.74-3.031-7.533c-0.295-2.663,0.054-5.236,1.085-7.714
		c0.09-0.218,0.212-0.361,0.438-0.457c0.781-0.323,1.568-0.623,2.394-0.812c0.104-0.024,0.222-0.14,0.317,0.012
		C14.299,16.013,14.194,16.091,14.156,16.175z M32.324,27.643c-1.764,5.214-5.271,8.619-10.523,10.24
		c-0.237,0.073-0.456,0.071-0.692,0.002c-0.954-0.275-1.879-0.618-2.803-1.102c6.833-1.454,11.312-5.425,13.469-12.052
		c0.264,0.453,0.369,0.951,0.563,1.413C32.551,26.656,32.496,27.13,32.324,27.643z M32.353,22.797
		c-2.574-4.523-6.374-7.374-11.494-8.418c-0.234-0.047-0.322-0.138-0.311-0.38c0.019-0.399-0.005-0.802,0.01-1.203
		c0.007-0.215-0.07-0.269-0.281-0.278c-1.057-0.045-1.056-0.053-1.056,1.019c0,0.598-0.001,0.603-0.617,0.568
		c-2.037-0.112-4.027,0.135-5.973,0.75c-0.07,0.021-0.141,0.046-0.212,0.062c-0.042,0.009-0.088,0.001-0.163,0.001
		c0.755-1.159,1.617-2.195,2.614-3.122c0.223-0.208,0.484-0.215,0.737-0.247c2.101-0.263,4.178-0.168,6.218,0.429
		c0.274,0.08,0.374,0.037,0.458-0.245c0.287-0.964,0.299-0.955-0.677-1.196c-1.409-0.347-2.835-0.489-4.283-0.453
		c-0.058-0.163,0.098-0.167,0.168-0.208c1.168-0.684,2.402-1.217,3.713-1.564c0.144-0.038,0.272-0.063,0.43-0.018
		c5.117,1.503,8.627,4.734,10.493,9.739c-0.028,0.059,0,0.147-0.085,0.181c-1.884-3.079-4.458-5.363-7.778-6.802
		c-0.289-0.126-0.391-0.098-0.505,0.193c-0.341,0.874-0.348,0.858,0.484,1.264c4.238,2.074,6.997,5.383,8.279,9.924
		c0.011,0.039,0.011,0.08,0.017,0.115C32.381,23.001,32.386,22.853,32.353,22.797z"/>
	<path fill-rule="evenodd" clip-rule="evenodd" fill="#8F8F8F" d="M1,21.787c0.111,0.019,0.085,0.1,0.075,0.172
		C1.053,22.004,1.028,22.006,1,21.965C1,21.905,1,21.847,1,21.787z"/>
	<path fill-rule="evenodd" clip-rule="evenodd" fill="#696969" d="M1,21.965c0.025-0.003,0.049-0.005,0.075-0.005
		c0.017,0.079,0.017,0.15-0.075,0.183C1,22.083,1,22.024,1,21.965z"/>
	<path fill-rule="evenodd" clip-rule="evenodd" fill="#4D4D4D" d="M1,23.927c0.094,0.059,0.115,0.118,0,0.178
		C1,24.045,1,23.985,1,23.927z"/>
	<path fill-rule="evenodd" clip-rule="evenodd" fill="#FEFEFE" d="M12.766,37.492c0.01,0.083-0.007,0.133-0.105,0.09
		C12.696,37.552,12.731,37.522,12.766,37.492z"/>
	<path fill-rule="evenodd" clip-rule="evenodd" fill="#FEFEFE" d="M17.228,37.751c0.005,0.167-0.089,0.133-0.188,0.092
		C17.102,37.813,17.165,37.781,17.228,37.751z"/>
	<path fill-rule="evenodd" clip-rule="evenodd" fill="#FEFEFE" d="M32.042,18.214c0.085-0.034,0.057-0.122,0.085-0.181
		C32.166,18.126,32.207,18.219,32.042,18.214z"/>
	<path fill-rule="evenodd" clip-rule="evenodd" fill="#B4B4B4" d="M32.296,18.573c-0.166-0.085-0.209-0.223-0.254-0.358
		c0.085-0.034,0.057-0.122,0.085-0.181C32.239,18.189,32.295,18.362,32.296,18.573z"/>
	<path fill-rule="evenodd" clip-rule="evenodd" fill="#D3D3D3" d="M13.105,37.722c-0.175-0.004-0.32-0.033-0.444-0.14
		c0.035-0.03,0.07-0.06,0.105-0.09C12.896,37.527,13.012,37.582,13.105,37.722z"/>
	<path fill-rule="evenodd" clip-rule="evenodd" fill="#D6D6D6" d="M17.486,37.859c-0.001,0.165-0.099,0.102-0.181,0.077
		c-0.097-0.007-0.195-0.013-0.265-0.094c0.062-0.03,0.125-0.062,0.188-0.092C17.313,37.787,17.4,37.822,17.486,37.859z"/>
	<path fill-rule="evenodd" clip-rule="evenodd" fill="#A3A3A3" d="M17.305,37.936c0.061-0.025,0.12-0.051,0.181-0.077
		c0.059,0.035,0.193,0.068,0.156,0.109C17.539,38.09,17.415,37.999,17.305,37.936z"/>
</g>
</svg>
