                                            <svg xmlns="http://www.w3.org/2000/svg" width="33" height="33"
                                                viewBox="0 0 24 24">
                                                <rect width="24" height="24" rx="4" fill="#0A66C2" />
                                                <path fill="#fff"
                                                    d="M7 17H5V10h2v7zM6 9.2C5.3 9.2 4.7 8.6 4.7 7.9S5.3 6.6 6 6.6s1.3.6 1.3 1.3S6.7 9.2 6 9.2zM19 17h-2v-3.6c0-.9 0-2-1.3-2s-1.5 1-1.5 2V17h-2V10h2v1h.1c.3-.6 1.2-1.3 2.4-1.3 2.2 0 2.3 1.8 2.3 3.1V17z" />
                                            </svg>
