<svg width="17" height="17" viewBox="0 0 17 17" xmlns="http://www.w3.org/2000/svg" fill="white">
                    <path
                        d="M8.50035 9.09302C5.99384 9.09302 3.95384 7.05302 3.95384 4.54651C3.95384 2.04 5.99384 0 8.50035 0C11.0069 0 13.0469 2.04 13.0469 4.54651C13.0469 7.05302 11.0069 9.09302 8.50035 9.09302ZM8.50035 1.18605C6.65012 1.18605 5.13989 2.69628 5.13989 4.54651C5.13989 6.39674 6.65012 7.90698 8.50035 7.90698C10.3506 7.90698 11.8608 6.39674 11.8608 4.54651C11.8608 2.69628 10.3506 1.18605 8.50035 1.18605ZM15.2924 17C14.9683 17 14.6994 16.7312 14.6994 16.407C14.6994 13.6791 11.9162 11.4651 8.50035 11.4651C5.08454 11.4651 2.30128 13.6791 2.30128 16.407C2.30128 16.7312 2.03244 17 1.70826 17C1.38407 17 1.11523 16.7312 1.11523 16.407C1.11523 13.0307 4.42826 10.2791 8.50035 10.2791C12.5724 10.2791 15.8855 13.0307 15.8855 16.407C15.8855 16.7312 15.6166 17 15.2924 17Z"
                    />
                </svg>